<svg width="24" height="24" viewBox="0 0 24 24" fill="none" xmlns="http://www.w3.org/2000/svg">
<path d="M12 12C14.7614 12 17 9.76142 17 7C17 4.23858 14.7614 2 12 2C9.23858 2 7 4.23858 7 7C7 9.76142 9.23858 12 12 12Z" fill="url(#paint0_linear_1208_4465)"/>
<path d="M12.0002 14.5C6.99016 14.5 2.91016 17.86 2.91016 22C2.91016 22.28 3.13016 22.5 3.41016 22.5H20.5902C20.8702 22.5 21.0902 22.28 21.0902 22C21.0902 17.86 17.0102 14.5 12.0002 14.5Z" fill="url(#paint1_linear_1208_4465)"/>
<defs>
<linearGradient id="paint0_linear_1208_4465" x1="6.03595" y1="-1.24075" x2="20.1947" y2="-0.707909" gradientUnits="userSpaceOnUse">
<stop stop-color="#1CC34B"/>
<stop offset="1" stop-color="#0057FF"/>
</linearGradient>
<linearGradient id="paint1_linear_1208_4465" x1="1.15751" y1="11.9074" x2="26.7475" y2="14.0959" gradientUnits="userSpaceOnUse">
<stop stop-color="#1CC34B"/>
<stop offset="1" stop-color="#0057FF"/>
</linearGradient>
</defs>
</svg>
