<svg width="76" height="76" viewBox="0 0 76 76" fill="none" xmlns="http://www.w3.org/2000/svg">
<g clip-path="url(#clip0_8_8378)">
<path d="M75.9998 38.0001L67.3962 28.4479L68.7433 15.6598L56.1626 12.9966L49.7452 1.84839L37.9999 7.09776L36.4146 38.0001L37.9999 68.9023L49.7454 74.1516L56.1626 63.0036L68.7433 60.3402L67.3962 47.5521L75.9998 38.0001Z" fill="#0ED678"/>
<path d="M26.2544 1.84839L19.8372 12.9966L7.25647 15.66L8.60355 28.4479L0 38.0001L8.60355 47.5521L7.25647 60.3402L19.8372 63.0036L26.2546 74.1516L38.0001 68.9023V7.09776L26.2544 1.84839Z" fill="#04EB84"/>
<path d="M53.9308 29.6795L50.6046 26.7106L38.0004 40.8317L36.415 44.3411L38.0004 47.5273L53.9308 29.6795Z" fill="#F7F0EB"/>
<path d="M24.7541 34.6423L21.6016 37.795L34.8561 51.0497L38.0002 47.5273V40.8317L34.6722 44.5603L24.7541 34.6423Z" fill="#FFFBF5"/>
</g>
<defs>
<clipPath id="clip0_8_8378">
<rect width="76" height="76" fill="white"/>
</clipPath>
</defs>
</svg>
