<svg width="60" height="80" viewBox="0 0 49 48" fill="none" xmlns="http://www.w3.org/2000/svg">
<g clip-path="url(#clip0_5_576)">
<path d="M9.92769 15.7794C9.92769 15.7794 10.2664 2.23464 22.7311 0.213011C35.1959 -1.80861 39.125 10.995 39.125 20.0922C39.125 29.1894 29.641 35.7261 25.7796 43.1386C21.9182 50.5511 13.2471 48.26 11.3503 44.3515C9.45341 40.4431 9.92769 15.7794 9.92769 15.7794Z" fill="#FDBA91"/>
<path d="M23.7828 0.0765988C33.1385 1.08141 36.2194 12.0383 36.2194 20.0922C36.2194 29.1894 26.7354 35.7261 22.874 43.1386C21.3502 46.0638 19.0774 47.4769 16.7675 47.8767C19.9198 48.4056 23.6094 47.3048 25.7797 43.1386C29.641 35.7261 39.125 29.1894 39.125 20.0922C39.125 11.2561 35.4174 -1.07512 23.7828 0.0765988Z" fill="#FC997D"/>
<path d="M19.9359 23.7069C20.9654 20.2062 13.6802 16.9052 16.1682 9.72762C17.4553 6.01409 20.3651 3.41309 24.4809 3.41309C31.3269 3.41309 34.2127 12.1682 34.2127 18.6287C34.2127 24.0007 28.4074 35.1065 19.0138 35.1065C15.2987 35.1065 14.8507 31.9985 14.8507 29.8847C14.8508 25.9823 18.9063 27.2075 19.9359 23.7069Z" fill="#FC997D"/>
<path d="M24.4809 3.41309C23.9518 3.41309 23.4431 3.45677 22.9548 3.53955C28.8105 4.62949 31.3071 12.6206 31.3071 18.6287C31.3071 23.6652 26.2042 33.7419 17.8254 34.9807C18.1791 35.0615 18.5728 35.1065 19.0138 35.1065C28.4075 35.1065 34.2128 24.0007 34.2128 18.6287C34.2128 12.1683 31.327 3.41309 24.4809 3.41309Z" fill="#EB866C"/>
<path d="M26.6028 24.7772C26.4937 25.1477 26.1034 25.3632 25.7291 25.2525C25.3569 25.1419 25.1441 24.751 25.2547 24.3788C25.2613 24.3544 25.9719 21.8606 24.9538 20.1938C24.4888 19.4316 23.7397 18.961 22.6634 18.7528C19.5359 18.15 17.5878 17.1206 16.5584 16.4231C16.1881 15.6525 15.8938 14.821 15.7484 13.9144C16.7109 14.7674 18.2603 16.4715 22.9297 17.3728C24.3988 17.656 25.4844 18.361 26.1584 19.4672C27.4981 21.6722 26.6403 24.6516 26.6028 24.7772Z" fill="#EB866C"/>
</g>
<defs>
<clipPath id="clip0_5_576">
<rect width="48" height="48" fill="white" transform="translate(0.5)"/>
</clipPath>
</defs>
</svg>
