<svg width="93" height="129" viewBox="0 0 93 129" fill="none" xmlns="http://www.w3.org/2000/svg">
<path d="M77.7213 31.408C77.7213 31.2561 77.7881 31.1164 77.7881 30.9646C77.7881 30.8795 76.9013 21.8355 79.3126 14.1582C80.5639 10.1737 78.4745 5.98276 74.5447 4.63436C68.4222 2.51458 58.54 0 46.2951 0C34.0501 0 24.1862 2.5328 18.0455 4.63436C14.1096 5.98276 12.0263 10.1737 13.2775 14.1582C15.6888 21.8355 14.8142 30.8795 14.802 30.9646C14.802 31.1164 14.8506 31.2743 14.8506 31.408C5.72767 39.8567 0 51.8951 0 65.3002C0 98.8158 46.2708 128.499 46.2708 128.499C46.2708 128.499 92.5415 98.8158 92.5415 65.3002C92.5415 51.8951 86.8139 39.8567 77.697 31.408H77.7152H77.7213ZM19.6125 9.17762C25.3949 7.17932 34.7122 4.79835 46.289 4.79835C57.8658 4.79835 67.1831 7.17324 72.9654 9.17762C74.3989 9.67564 75.1703 11.2123 74.7087 12.7004C73.0505 18.0211 72.7589 23.6941 72.7954 27.4053C65.2881 22.1392 56.159 19.0233 46.289 19.0233C36.4189 19.0233 27.2899 22.1331 19.7826 27.4053C19.8191 23.6941 19.5457 18.0151 17.8693 12.7004C17.4077 11.2306 18.1791 9.67564 19.6125 9.17762ZM46.289 98.8158C27.6179 98.8158 12.4818 83.6797 12.4818 65.0086V64.96C30.8978 64.4316 45.7059 49.6235 46.2343 31.2075H46.3376C46.866 49.6235 61.6741 64.4316 80.0901 64.96V65.0086C80.0901 83.6797 64.954 98.8158 46.2829 98.8158H46.289ZM49.247 10.3924H47.7224V8.86786C47.7224 8.0661 47.0725 7.41619 46.2708 7.41619C45.469 7.41619 44.8191 8.0661 44.8191 8.86786V10.3924H43.2946C42.4928 10.3924 41.8429 11.0423 41.8429 11.844C41.8429 12.6458 42.4928 13.2957 43.2946 13.2957H44.8191V14.8202C44.8191 15.622 45.469 16.2719 46.2708 16.2719C47.0725 16.2719 47.7224 15.622 47.7224 14.8202V13.2957H49.247C50.0487 13.2957 50.6986 12.6458 50.6986 11.844C50.6986 11.0423 50.0487 10.3924 49.247 10.3924ZM35.684 71.2526C34.9977 71.2526 34.3356 70.9307 33.9408 70.3111C32.9811 68.823 31.3594 67.9362 29.6162 67.9362C27.873 67.9362 26.2452 68.823 25.2916 70.3111C24.6782 71.2708 23.3905 71.5441 22.4369 70.9246C21.4772 70.3111 21.2039 69.0235 21.8234 68.0699C23.5484 65.4034 26.4578 63.8121 29.6223 63.8121C32.7868 63.8121 35.6901 65.4034 37.4211 68.0699C38.0346 69.0295 37.7613 70.3111 36.8077 70.9246C36.4675 71.1493 36.0727 71.2465 35.6962 71.2465L35.684 71.2526ZM69.0114 71.2526C68.325 71.2526 67.663 70.9307 67.2682 70.3111C66.3085 68.823 64.6868 67.9362 62.9436 67.9362C61.2004 67.9362 59.5726 68.823 58.619 70.3111C58.0055 71.2708 56.7178 71.5441 55.7642 70.9246C54.8046 70.3111 54.5312 69.0235 55.1508 68.0699C56.8758 65.4034 59.7851 63.8121 62.9496 63.8121C66.1141 63.8121 69.0174 65.4034 70.7485 68.0699C71.3619 69.0295 71.0886 70.3111 70.135 70.9246C69.7949 71.1493 69.4001 71.2465 69.0235 71.2465L69.0114 71.2526Z" fill="url(#paint0_linear_360_3)"/>
<defs>
<linearGradient id="paint0_linear_360_3" x1="19.2967" y1="33.9772" x2="91.7945" y2="91.4968" gradientUnits="userSpaceOnUse">
<stop offset="0.11" stop-color="#54DE62"/>
<stop offset="0.84" stop-color="#1BB3F7"/>
</linearGradient>
</defs>
</svg>
