<svg width="65" height="65" viewBox="0 0 65 65" fill="none" xmlns="http://www.w3.org/2000/svg">
<path d="M49.8557 24.725V36.6732H31.5865V24.725L39.6797 19.125C39.9848 18.911 40.3484 18.7961 40.7211 18.7961C41.0938 18.7961 41.4574 18.911 41.7625 19.125L49.8557 24.725Z" fill="#FFE589"/>
<path d="M12.4039 30.2789C9.98143 30.2796 7.65845 31.2423 5.94554 32.9552C4.23263 34.6681 3.26999 36.9911 3.26923 39.4135C3.26923 45.7985 12.4039 57.6827 12.4039 57.6827C12.4039 57.6827 21.5385 45.8077 21.5385 39.4135C21.5377 36.9911 20.5751 34.6681 18.8622 32.9552C17.1493 31.2423 14.8263 30.2796 12.4039 30.2789ZM12.4039 43.0672C11.6812 43.0672 10.9747 42.8529 10.3739 42.4514C9.77297 42.0499 9.30465 41.4793 9.0281 40.8116C8.75155 40.144 8.6792 39.4093 8.82019 38.7005C8.96119 37.9917 9.3092 37.3406 9.82022 36.8296C10.3312 36.3186 10.9823 35.9707 11.6911 35.8297C12.3999 35.6887 13.1346 35.7611 13.8022 36.0377C14.4699 36.3142 15.0405 36.7826 15.442 37.3835C15.8435 37.9844 16.0578 38.6908 16.0577 39.4135C16.0578 39.8934 15.9634 40.3685 15.7798 40.8119C15.5962 41.2552 15.3271 41.6581 14.9878 41.9974C14.6485 42.3367 14.2456 42.6058 13.8023 42.7894C13.3589 42.973 12.8837 43.0674 12.4039 43.0672Z" fill="#FF6167"/>
<path d="M5.0961 39.4135C5.09653 37.1521 5.93543 34.9712 7.45057 33.2925C8.96571 31.6138 11.0495 30.5565 13.299 30.325C13.0067 30.2976 12.7052 30.2794 12.4039 30.2794C9.98143 30.2801 7.65845 31.2428 5.94554 32.9557C4.23263 34.6686 3.26999 36.9916 3.26923 39.414C3.26923 45.799 12.4039 57.6832 12.4039 57.6832C12.4039 57.6832 12.7601 57.2265 13.3172 56.4409C10.9971 53.225 5.0961 44.5471 5.0961 39.4135Z" fill="#FF3D45"/>
<path d="M12.4039 43.0674C14.4219 43.0674 16.0577 41.4315 16.0577 39.4135C16.0577 37.3955 14.4219 35.7596 12.4039 35.7596C10.3859 35.7596 8.75 37.3955 8.75 39.4135C8.75 41.4315 10.3859 43.0674 12.4039 43.0674Z" fill="#FF3D45"/>
<path d="M12.4039 43.0674C14.4219 43.0674 16.0577 41.4315 16.0577 39.4135C16.0577 37.3955 14.4219 35.7596 12.4039 35.7596C10.3859 35.7596 8.75 37.3955 8.75 39.4135C8.75 41.4315 10.3859 43.0674 12.4039 43.0674Z" fill="#E0EBF0"/>
<path d="M15.4 41.4961C15.0956 41.9355 14.6984 42.3027 14.2365 42.5717C13.7746 42.8407 13.2592 43.005 12.7269 43.053C12.1945 43.1009 11.6581 43.0313 11.1555 42.8491C10.653 42.6669 10.1966 42.3766 9.81863 41.9986C9.44066 41.6206 9.15031 41.1642 8.96812 40.6617C8.78593 40.1592 8.71635 39.6228 8.76428 39.0904C8.81221 38.558 8.97649 38.0426 9.2455 37.5807C9.51452 37.1188 9.88171 36.7216 10.3211 36.4172C9.83018 37.1196 9.60224 37.9724 9.67729 38.8261C9.75234 39.6798 10.1256 40.4797 10.7315 41.0857C11.3375 41.6917 12.1375 42.0649 12.9911 42.1399C13.8448 42.215 14.6976 41.987 15.4 41.4961Z" fill="#C8DBE4"/>
<path d="M49.8557 24.725V26.8899C49.4099 26.6767 49.809 26.9189 40.7211 20.6235C31.6261 26.9235 32.0036 26.6904 31.5865 26.8899V24.725L39.6797 19.125C39.9848 18.911 40.3484 18.7961 40.7211 18.7961C41.0938 18.7961 41.4574 18.911 41.7625 19.125L49.8557 24.725Z" fill="#FFD954"/>
<path d="M39.6466 11.8776L27.8889 20.4287C27.2911 20.8635 26.888 21.5155 26.7661 22.2444C26.6442 22.9734 26.8134 23.7211 27.2372 24.3266C27.6647 24.9373 28.3166 25.3539 29.0503 25.4853C29.784 25.6168 30.54 25.4524 31.1529 25.0281L39.6812 19.1237C39.9868 18.9122 40.3495 18.7989 40.7211 18.7989C41.0927 18.7989 41.4555 18.9122 41.761 19.1237L50.2895 25.0281C50.9024 25.4524 51.6583 25.6168 52.392 25.4853C53.1257 25.3539 53.7775 24.9373 54.205 24.3266C54.6288 23.7211 54.798 22.9734 54.6762 22.2444C54.5543 21.5155 54.1511 20.8634 53.5534 20.4287L41.7957 11.8776C41.4835 11.6505 41.1073 11.5282 40.7212 11.5282C40.3351 11.5282 39.9589 11.6505 39.6466 11.8776Z" fill="#FF6167"/>
<path d="M36.7789 27.5385H44.6635C44.8293 27.5385 44.9882 27.6044 45.1054 27.7216C45.2226 27.8388 45.2885 27.9978 45.2885 28.1635V36.6731H36.1539V28.1635C36.1539 27.9978 36.2197 27.8388 36.3369 27.7216C36.4541 27.6044 36.6131 27.5385 36.7789 27.5385Z" fill="#E69B6C"/>
<path d="M44.375 29.3654C43.5863 28.7689 42.6235 28.448 41.6346 28.4519C40.4234 28.4524 39.262 28.9337 38.4055 29.7902C37.5491 30.6466 37.0677 31.8081 37.0672 33.0193V36.6731H36.1539V32.1058C36.155 31.2025 36.4236 30.3198 36.9258 29.569C37.428 28.8182 38.1413 28.2329 38.9757 27.887C39.8102 27.5411 40.7284 27.4501 41.6145 27.6254C42.5006 27.8007 43.3149 28.2346 43.9547 28.8721C44.1071 29.0257 44.2476 29.1906 44.375 29.3654Z" fill="#E1864D"/>
<path d="M24.2789 8.35573C24.1242 8.3613 23.97 8.37683 23.8174 8.40223C23.8174 8.38636 23.8221 8.37173 23.8221 8.35573C23.8238 7.64148 23.6157 6.94246 23.2235 6.3455C22.8313 5.74854 22.2724 5.27996 21.6161 4.99794C20.9599 4.71593 20.2353 4.63292 19.5323 4.75922C18.8293 4.88552 18.1789 5.21556 17.6619 5.70836C17.3627 4.7846 16.745 3.99719 15.919 3.48663C15.0931 2.97607 14.1126 2.77557 13.1525 2.9209C12.1925 3.06623 11.3153 3.54794 10.6774 4.28009C10.0396 5.01223 9.68264 5.94718 9.67024 6.91811C9.04836 6.64498 8.37338 6.51406 7.69449 6.53488C7.0156 6.5557 6.3499 6.72773 5.74593 7.03844C5.14196 7.34916 4.61492 7.79072 4.20324 8.33095C3.79156 8.87117 3.5056 9.49645 3.36621 10.1612C3.22683 10.826 3.23752 11.5134 3.39752 12.1735C3.55751 12.8336 3.86278 13.4497 4.29107 13.9769C4.71935 14.504 5.25987 14.929 5.87321 15.2208C6.48656 15.5125 7.15728 15.6638 7.83649 15.6635H24.2789C25.2479 15.6635 26.1773 15.2785 26.8625 14.5933C27.5478 13.9081 27.9327 12.9787 27.9327 12.0096C27.9327 11.0405 27.5478 10.1112 26.8625 9.42593C26.1773 8.74069 25.2479 8.35573 24.2789 8.35573Z" fill="#E0EBF0"/>
<path d="M58.5336 30.2789C58.0207 30.2791 57.5154 30.4031 57.0606 30.6403C56.6058 30.8775 56.2149 31.2209 55.9211 31.6414C55.4765 31.3482 54.9557 31.1917 54.4231 31.1914C54.3674 31.1914 54.3153 31.2039 54.2606 31.2079C54.1142 30.7814 53.8644 30.3977 53.5335 30.0913C53.2026 29.7849 52.801 29.5653 52.3645 29.452C51.9279 29.3387 51.4702 29.3354 51.032 29.4422C50.5939 29.5491 50.1891 29.7629 49.8538 30.0644L49.856 36.6723H58.5339C59.3818 36.6723 60.195 36.3354 60.7946 35.7359C61.3942 35.1363 61.731 34.3231 61.731 33.4752C61.731 32.6272 61.3942 31.814 60.7946 31.2144C60.195 30.6149 59.3818 30.278 58.5339 30.278L58.5336 30.2789Z" fill="#1FBD92"/>
<path d="M61.6943 33.9144C61.5894 34.6784 61.2115 35.3786 60.6306 35.8856C60.0496 36.3927 59.3048 36.6725 58.5336 36.6731H49.8558V30.0688C50.1215 29.828 50.4318 29.6418 50.7693 29.5206C50.7693 30.9329 51.3303 32.2873 52.3289 33.286C53.3276 34.2846 54.682 34.8456 56.0943 34.8456H59.4466C59.8642 34.8461 60.2777 34.7641 60.6634 34.6043C61.0491 34.4445 61.3994 34.21 61.6943 33.9144Z" fill="#00BD82"/>
<path d="M40.3599 43.0231C40.2089 43.0231 40.0604 42.9856 39.9275 42.9141C39.7945 42.8426 39.6814 42.7393 39.5982 42.6134C39.5149 42.4875 39.4642 42.3429 39.4504 42.1926C39.4367 42.0423 39.4604 41.8909 39.5195 41.752C39.7107 41.3013 39.8087 40.8166 39.8078 40.327C39.8106 40.0866 39.908 39.857 40.079 39.688C40.25 39.519 40.4808 39.4242 40.7212 39.4242C40.9616 39.4242 41.1923 39.519 41.3633 39.688C41.5343 39.857 41.6318 40.0866 41.6346 40.327C41.636 41.0623 41.4882 41.7902 41.2001 42.4666C41.1302 42.6317 41.0132 42.7724 40.8638 42.8714C40.7144 42.9704 40.5391 43.0231 40.3599 43.0231Z" fill="#686169"/>
<path d="M44.1216 62.25H40.392C40.2711 62.2514 40.1512 62.2289 40.0391 62.1836C39.9271 62.1383 39.8251 62.0713 39.7391 61.9863C39.6532 61.9013 39.5849 61.8002 39.5383 61.6886C39.4918 61.5771 39.4678 61.4575 39.4678 61.3366C39.4678 61.2157 39.4918 61.0961 39.5383 60.9845C39.5849 60.873 39.6532 60.7718 39.7391 60.6869C39.8251 60.6019 39.9271 60.5349 40.0391 60.4896C40.1512 60.4443 40.2711 60.4217 40.392 60.4232H44.1216C44.2424 60.4217 44.3624 60.4443 44.4744 60.4896C44.5865 60.5349 44.6885 60.6019 44.7744 60.6869C44.8604 60.7718 44.9286 60.873 44.9752 60.9845C45.0218 61.0961 45.0458 61.2157 45.0458 61.3366C45.0458 61.4575 45.0218 61.5771 44.9752 61.6886C44.9286 61.8002 44.8604 61.9013 44.7744 61.9863C44.6885 62.0713 44.5865 62.1383 44.4744 62.1836C44.3624 62.2289 44.2424 62.2514 44.1216 62.25ZM36.6625 62.25H32.9326C32.8117 62.2514 32.6918 62.2289 32.5797 62.1836C32.4677 62.1383 32.3657 62.0713 32.2798 61.9863C32.1938 61.9013 32.1255 61.8002 32.079 61.6886C32.0324 61.5771 32.0084 61.4575 32.0084 61.3366C32.0084 61.2157 32.0324 61.0961 32.079 60.9845C32.1255 60.873 32.1938 60.7718 32.2798 60.6869C32.3657 60.6019 32.4677 60.5349 32.5797 60.4896C32.6918 60.4443 32.8117 60.4217 32.9326 60.4232H36.6625C36.9029 60.426 37.1325 60.5234 37.3015 60.6944C37.4705 60.8654 37.5653 61.0962 37.5653 61.3366C37.5653 61.577 37.4705 61.8077 37.3015 61.9787C37.1325 62.1497 36.9029 62.2472 36.6625 62.25ZM29.2031 62.25H25.4732C25.2328 62.2472 25.0032 62.1497 24.8342 61.9787C24.6652 61.8077 24.5704 61.577 24.5704 61.3366C24.5704 61.0962 24.6652 60.8654 24.8342 60.6944C25.0032 60.5234 25.2328 60.426 25.4732 60.4232H29.203C29.4434 60.426 29.673 60.5234 29.842 60.6944C30.011 60.8654 30.1058 61.0962 30.1058 61.3366C30.1058 61.577 30.011 61.8077 29.842 61.9787C29.673 62.1497 29.4434 62.2472 29.203 62.25H29.2031ZM21.7437 62.25H18.014C17.8931 62.2514 17.7732 62.2289 17.6611 62.1836C17.5491 62.1383 17.4471 62.0713 17.3611 61.9863C17.2752 61.9013 17.2069 61.8002 17.1603 61.6886C17.1138 61.5771 17.0898 61.4575 17.0898 61.3366C17.0898 61.2157 17.1138 61.0961 17.1603 60.9845C17.2069 60.873 17.2752 60.7718 17.3611 60.6869C17.4471 60.6019 17.5491 60.5349 17.6611 60.4896C17.7732 60.4443 17.8931 60.4217 18.014 60.4232H21.7436C21.8644 60.4217 21.9844 60.4443 22.0964 60.4896C22.2085 60.5349 22.3105 60.6019 22.3964 60.6869C22.4824 60.7718 22.5506 60.873 22.5972 60.9845C22.6438 61.0961 22.6678 61.2157 22.6678 61.3366C22.6678 61.4575 22.6438 61.5771 22.5972 61.6886C22.5506 61.8002 22.4824 61.9013 22.3964 61.9863C22.3105 62.0713 22.2085 62.1383 22.0964 62.1836C21.9844 62.2289 21.8646 62.2514 21.7437 62.25ZM47.8515 62.2417C47.6138 62.2426 47.3852 62.1508 47.2141 61.9858C47.043 61.8209 46.9429 61.5958 46.9351 61.3582C46.9273 61.1207 47.0124 60.8895 47.1723 60.7137C47.3323 60.5379 47.5544 60.4313 47.7916 60.4167C48.2762 60.385 48.747 60.2427 49.168 60.0006C49.589 59.7585 49.9488 59.4231 50.2198 59.0202C50.3569 58.8219 50.5667 58.6858 50.8036 58.6416C51.0405 58.5974 51.2853 58.6486 51.4847 58.784C51.684 58.9195 51.8218 59.1282 51.8679 59.3647C51.914 59.6013 51.8648 59.8465 51.731 60.0469C51.3044 60.6799 50.7384 61.2067 50.0765 61.5867C49.4145 61.9667 48.6742 62.1898 47.9125 62.2389C47.8923 62.2407 47.8718 62.2412 47.8513 62.2412L47.8515 62.2417ZM51.4866 56.8817C51.2932 56.8815 51.1048 56.82 50.9485 56.706C50.7923 56.5921 50.6761 56.4315 50.6168 56.2474C50.4666 55.7859 50.2141 55.3644 49.8781 55.0142C49.5421 54.664 49.1313 54.3942 48.6765 54.225C48.4491 54.1413 48.2643 53.9707 48.1628 53.7507C48.0612 53.5307 48.0512 53.2794 48.135 53.052C48.2187 52.8247 48.3893 52.6399 48.6093 52.5383C48.8293 52.4368 49.0806 52.4268 49.308 52.5105C50.0224 52.7765 50.6676 53.2003 51.1954 53.7504C51.7232 54.3005 52.12 54.9627 52.3562 55.6875C52.4002 55.8246 52.4112 55.9701 52.3883 56.1122C52.3655 56.2543 52.3094 56.389 52.2246 56.5053C52.1398 56.6216 52.0288 56.7163 51.9005 56.7816C51.7723 56.8468 51.6304 56.8809 51.4865 56.881L51.4866 56.8817ZM45.293 54.0294H41.5632C41.3209 54.0294 41.0886 53.9332 40.9173 53.7619C40.746 53.5905 40.6497 53.3582 40.6497 53.1159C40.6497 52.8736 40.746 52.6413 40.9173 52.47C41.0886 52.2987 41.3209 52.2024 41.5632 52.2024H45.2928C45.4128 52.2024 45.5316 52.226 45.6424 52.2719C45.7533 52.3179 45.854 52.3851 45.9388 52.47C46.0236 52.5548 46.0909 52.6555 46.1368 52.7663C46.1827 52.8772 46.2063 52.9959 46.2063 53.1159C46.2063 53.2359 46.1827 53.3547 46.1368 53.4655C46.0909 53.5763 46.0236 53.677 45.9388 53.7619C45.854 53.8467 45.7533 53.914 45.6424 53.9599C45.5316 54.0058 45.4128 54.0294 45.2928 54.0294H45.293ZM37.8337 54.0294H34.1038C33.8616 54.0294 33.6292 53.9332 33.4579 53.7619C33.2866 53.5905 33.1903 53.3582 33.1903 53.1159C33.1903 52.8736 33.2866 52.6413 33.4579 52.47C33.6292 52.2987 33.8616 52.2024 34.1038 52.2024H37.8336C38.0759 52.2024 38.3082 52.2987 38.4795 52.47C38.6509 52.6413 38.7471 52.8736 38.7471 53.1159C38.7471 53.3582 38.6509 53.5905 38.4795 53.7619C38.3082 53.9332 38.0759 54.0294 37.8336 54.0294H37.8337ZM30.3743 54.0294H27.476C27.1371 54.0296 26.7991 53.9957 26.467 53.9282C26.2295 53.8797 26.0211 53.7388 25.8875 53.5366C25.754 53.3345 25.7062 53.0875 25.7547 52.8501C25.8032 52.6127 25.944 52.4043 26.1462 52.2707C26.3483 52.1371 26.5953 52.0893 26.8327 52.1378C27.0444 52.1808 27.2599 52.2025 27.476 52.2024H30.3742C30.4942 52.2024 30.613 52.226 30.7238 52.2719C30.8346 52.3179 30.9353 52.3851 31.0202 52.47C31.105 52.5548 31.1723 52.6555 31.2182 52.7663C31.2641 52.8772 31.2877 52.9959 31.2877 53.1159C31.2877 53.2359 31.2641 53.3547 31.2182 53.4655C31.1723 53.5763 31.105 53.677 31.0202 53.7619C30.9353 53.8467 30.8346 53.914 30.7238 53.9599C30.613 54.0058 30.4943 54.0294 30.3743 54.0294ZM23.7962 51.7493C23.6264 51.7494 23.4599 51.7023 23.3154 51.6131C23.1709 51.5239 23.0542 51.3962 22.9782 51.2443C22.6383 50.5609 22.4584 49.8091 22.452 49.0458C22.4457 48.2826 22.6131 47.5279 22.9416 46.8389C23.0475 46.6225 23.2346 46.4568 23.4622 46.3776C23.6897 46.2985 23.9393 46.3124 24.1566 46.4164C24.3739 46.5204 24.5414 46.706 24.6226 46.9328C24.7038 47.1596 24.6921 47.4093 24.5901 47.6275C24.3814 48.0654 24.275 48.545 24.2789 49.0301C24.2827 49.5152 24.3968 49.993 24.6125 50.4275C24.6821 50.5667 24.715 50.7214 24.708 50.8769C24.7011 51.0324 24.6545 51.1836 24.5728 51.316C24.491 51.4485 24.3767 51.5578 24.2408 51.6337C24.1049 51.7096 23.9519 51.7495 23.7962 51.7497V51.7493ZM26.5837 45.9045C26.3586 45.9044 26.1414 45.8211 25.9739 45.6707C25.8064 45.5203 25.7004 45.3133 25.6761 45.0894C25.6519 44.8656 25.7112 44.6407 25.8427 44.4579C25.9741 44.2751 26.1684 44.1473 26.3883 44.099C26.7455 44.0204 27.1101 43.9807 27.4758 43.9808H30.3072C30.5495 43.9808 30.7818 44.077 30.9532 44.2483C31.1245 44.4197 31.2207 44.652 31.2207 44.8943C31.2207 45.1366 31.1245 45.3689 30.9532 45.5402C30.7818 45.7115 30.5495 45.8078 30.3072 45.8078H27.476C27.2423 45.8077 27.0093 45.8328 26.781 45.8828C26.7162 45.8972 26.6501 45.9045 26.5838 45.9045H26.5837ZM36.1537 45.8078H34.0375C33.7952 45.8078 33.5628 45.7115 33.3915 45.5402C33.2202 45.3689 33.124 45.1366 33.124 44.8943C33.124 44.652 33.2202 44.4197 33.3915 44.2483C33.5628 44.077 33.7952 43.9808 34.0375 43.9808H36.1543C36.5857 43.9813 37.0137 43.9051 37.4183 43.7558C37.6457 43.672 37.897 43.682 38.1171 43.7836C38.3371 43.8851 38.5077 44.0699 38.5915 44.2973C38.6752 44.5247 38.6652 44.776 38.5637 44.996C38.4621 45.216 38.2773 45.3866 38.05 45.4704C37.4429 45.6941 36.8007 45.8084 36.1537 45.8078Z" fill="#686169"/>
<path d="M14.2307 62.25H12.4039C12.283 62.2514 12.1631 62.2289 12.051 62.1836C11.9389 62.1383 11.837 62.0713 11.751 61.9863C11.6651 61.9013 11.5968 61.8002 11.5502 61.6886C11.5037 61.5771 11.4797 61.4575 11.4797 61.3366C11.4797 61.2157 11.5037 61.0961 11.5502 60.9845C11.5968 60.873 11.6651 60.7718 11.751 60.6869C11.837 60.6019 11.9389 60.5349 12.051 60.4896C12.1631 60.4443 12.283 60.4217 12.4039 60.4232H14.2307C14.3516 60.4217 14.4715 60.4443 14.5836 60.4896C14.6956 60.5349 14.7976 60.6019 14.8836 60.6869C14.9695 60.7718 15.0378 60.873 15.0844 60.9845C15.1309 61.0961 15.1549 61.2157 15.1549 61.3366C15.1549 61.4575 15.1309 61.5771 15.0844 61.6886C15.0378 61.8002 14.9695 61.9013 14.8836 61.9863C14.7976 62.0713 14.6956 62.1383 14.5836 62.1836C14.4715 62.2289 14.3516 62.2514 14.2307 62.25Z" fill="#686169"/>
<path d="M54.4231 37.5865H27.0192C26.8984 37.5879 26.7784 37.5654 26.6664 37.5201C26.5543 37.4748 26.4523 37.4078 26.3664 37.3228C26.2804 37.2378 26.2122 37.1367 26.1656 37.0251C26.119 36.9136 26.095 36.7939 26.095 36.6731C26.095 36.5522 26.119 36.4326 26.1656 36.321C26.2122 36.2095 26.2804 36.1083 26.3664 36.0234C26.4523 35.9384 26.5543 35.8714 26.6664 35.8261C26.7784 35.7808 26.8984 35.7582 27.0192 35.7596H54.4231C54.6635 35.7625 54.8931 35.8599 55.0621 36.0309C55.2311 36.2019 55.3259 36.4327 55.3259 36.6731C55.3259 36.9135 55.2311 37.1442 55.0621 37.3152C54.8931 37.4862 54.6635 37.5837 54.4231 37.5865Z" fill="#686169"/>
</svg>
