<svg width="44" height="44" viewBox="0 0 44 44" fill="none" xmlns="http://www.w3.org/2000/svg">
<rect width="44" height="44.0002" rx="10" fill="#F7F7F8"/>
<path d="M33.5865 33.1725V21.1725C33.5865 21.0628 33.5429 20.9575 33.4653 20.8799C33.3877 20.8023 33.2824 20.7587 33.1727 20.7587H10.8279C10.7181 20.7587 10.6129 20.8023 10.5353 20.8799C10.4577 20.9575 10.4141 21.0628 10.4141 21.1725V33.1725H33.5865Z" fill="#CAD0D7"/>
<path d="M28.2065 14.9655C28.3162 14.9655 28.4215 15.0091 28.4991 15.0867C28.5767 15.1643 28.6203 15.2695 28.6203 15.3793V32.3448H15.3789V15.3793C15.3789 15.2695 15.4225 15.1643 15.5001 15.0867C15.5777 15.0091 15.683 14.9655 15.7927 14.9655H28.2065Z" fill="#E4E8EB"/>
<path d="M17.4482 26.1382H26.5517V32.7589H17.4482V26.1382Z" fill="#CAD0D7"/>
<path d="M19.1035 26.5519H24.8966V32.345H19.1035V26.5519Z" fill="#4FC0E8"/>
<path d="M24.8966 30.6898C22.8276 30.276 22 27.3794 22 27.3794V32.3449H24.8966V30.6898Z" fill="#66D4F1"/>
<path d="M22.0001 30.6898C19.9311 30.276 19.1035 27.3794 19.1035 27.3794V32.3449H22.0001V30.6898Z" fill="#66D4F1"/>
<path d="M13.3107 22.4137H12.4831C12.2546 22.4137 12.0693 22.599 12.0693 22.8275V23.6551C12.0693 23.8836 12.2546 24.0689 12.4831 24.0689H13.3107C13.5392 24.0689 13.7245 23.8836 13.7245 23.6551V22.8275C13.7245 22.599 13.5392 22.4137 13.3107 22.4137Z" fill="#3AADD9"/>
<path d="M18.6894 19.5175H17.448C17.2194 19.5175 17.0342 19.7027 17.0342 19.9313V20.7588C17.0342 20.9874 17.2194 21.1726 17.448 21.1726H18.6894C18.9179 21.1726 19.1031 20.9874 19.1031 20.7588V19.9313C19.1031 19.7027 18.9179 19.5175 18.6894 19.5175Z" fill="#4FC0E8"/>
<path d="M22.8278 19.5175H21.1726C20.9441 19.5175 20.7588 19.7027 20.7588 19.9313V20.7588C20.7588 20.9874 20.9441 21.1726 21.1726 21.1726H22.8278C23.0563 21.1726 23.2415 20.9874 23.2415 20.7588V19.9313C23.2415 19.7027 23.0563 19.5175 22.8278 19.5175Z" fill="#4FC0E8"/>
<path d="M26.5517 19.5175H25.3103C25.0817 19.5175 24.8965 19.7027 24.8965 19.9313V20.7588C24.8965 20.9874 25.0817 21.1726 25.3103 21.1726H26.5517C26.7802 21.1726 26.9655 20.9874 26.9655 20.7588V19.9313C26.9655 19.7027 26.7802 19.5175 26.5517 19.5175Z" fill="#4FC0E8"/>
<path d="M13.3107 29.0343H12.4831C12.2546 29.0343 12.0693 29.2196 12.0693 29.4481V30.2757C12.0693 30.5042 12.2546 30.6895 12.4831 30.6895H13.3107C13.5392 30.6895 13.7245 30.5042 13.7245 30.2757V29.4481C13.7245 29.2196 13.5392 29.0343 13.3107 29.0343Z" fill="#3AADD9"/>
<path d="M13.3107 25.7241H12.4831C12.2546 25.7241 12.0693 25.9093 12.0693 26.1379V26.9654C12.0693 27.194 12.2546 27.3792 12.4831 27.3792H13.3107C13.5392 27.3792 13.7245 27.194 13.7245 26.9654V26.1379C13.7245 25.9093 13.5392 25.7241 13.3107 25.7241Z" fill="#3AADD9"/>
<path d="M30.6903 24.0688H31.5178C31.7464 24.0688 31.9316 23.8836 31.9316 23.655V22.8274C31.9316 22.5989 31.7464 22.4136 31.5178 22.4136H30.6903C30.4617 22.4136 30.2765 22.5989 30.2765 22.8274V23.655C30.2765 23.8836 30.4617 24.0688 30.6903 24.0688Z" fill="#3AADD9"/>
<path d="M30.6903 30.6895H31.5178C31.7464 30.6895 31.9316 30.5043 31.9316 30.2758V29.4482C31.9316 29.2196 31.7464 29.0344 31.5178 29.0344H30.6903C30.4617 29.0344 30.2765 29.2196 30.2765 29.4482V30.2758C30.2765 30.5043 30.4617 30.6895 30.6903 30.6895Z" fill="#3AADD9"/>
<path d="M30.6903 27.3793H31.5178C31.7464 27.3793 31.9316 27.194 31.9316 26.9655V26.1379C31.9316 25.9094 31.7464 25.7241 31.5178 25.7241H30.6903C30.4617 25.7241 30.2765 25.9094 30.2765 26.1379V26.9655C30.2765 27.194 30.4617 27.3793 30.6903 27.3793Z" fill="#3AADD9"/>
<path d="M26.1376 10H17.8618C17.4047 10 17.0342 10.3705 17.0342 10.8276V16.6207C17.0342 17.0778 17.4047 17.4483 17.8618 17.4483H26.1376C26.5947 17.4483 26.9652 17.0778 26.9652 16.6207V10.8276C26.9652 10.3705 26.5947 10 26.1376 10Z" fill="#F76C82"/>
<path d="M24.0686 13.3104V14.138C24.0686 14.2477 24.025 14.353 23.9474 14.4306C23.8698 14.5082 23.7645 14.5518 23.6548 14.5518H22.8272V15.3794C22.8272 15.4891 22.7836 15.5944 22.706 15.672C22.6284 15.7496 22.5232 15.7932 22.4134 15.7932H21.5858C21.4761 15.7932 21.3708 15.7496 21.2932 15.672C21.2156 15.5944 21.172 15.4891 21.172 15.3794V14.5518H20.3445C20.2347 14.5518 20.1295 14.5082 20.0519 14.4306C19.9743 14.353 19.9307 14.2477 19.9307 14.138V13.3104C19.9307 13.2007 19.9743 13.0954 20.0519 13.0178C20.1295 12.9402 20.2347 12.8966 20.3445 12.8966H21.172V12.069C21.172 11.9593 21.2156 11.854 21.2932 11.7764C21.3708 11.6988 21.4761 11.6552 21.5858 11.6552H22.4134C22.5232 11.6552 22.6284 11.6988 22.706 11.7764C22.7836 11.854 22.8272 11.9593 22.8272 12.069V12.8966H23.6548C23.7645 12.8966 23.8698 12.9402 23.9474 13.0178C24.025 13.0954 24.0686 13.2007 24.0686 13.3104Z" fill="white"/>
<path d="M26.5514 23.2414H17.448C17.2194 23.2414 17.0342 23.4267 17.0342 23.6552V26.138C17.0342 26.3665 17.2194 26.5518 17.448 26.5518H26.5514C26.78 26.5518 26.9652 26.3665 26.9652 26.138V23.6552C26.9652 23.4267 26.78 23.2414 26.5514 23.2414Z" fill="#A9B0BB"/>
<path d="M33.5862 32.3449H10.4138C10.1853 32.3449 10 32.5302 10 32.7587V33.5863C10 33.8148 10.1853 34.0001 10.4138 34.0001H33.5862C33.8147 34.0001 34 33.8148 34 33.5863V32.7587C34 32.5302 33.8147 32.3449 33.5862 32.3449Z" fill="#636C77"/>
<path d="M21.5859 26.5519H22.4135V32.345H21.5859V26.5519Z" fill="#3AADD9"/>
</svg>
