<svg width="530" height="120" viewBox="0 0 538 130" fill="none" xmlns="http://www.w3.org/2000/svg">
<path d="M78.5943 32.0682C78.5943 31.9163 78.6611 31.7766 78.6611 31.6248C78.6611 31.5397 77.7743 22.4957 80.1856 14.8184C81.4369 10.8339 79.3475 6.64292 75.4177 5.29452C69.2952 3.17474 59.413 0.660156 47.1681 0.660156C34.9231 0.660156 25.0592 3.19296 18.9185 5.29452C14.9826 6.64292 12.8993 10.8339 14.1505 14.8184C16.5618 22.4957 15.6872 31.5397 15.675 31.6248C15.675 31.7766 15.7236 31.9345 15.7236 32.0682C6.60071 40.5169 0.873047 52.5553 0.873047 65.9604C0.873047 99.476 47.1438 129.159 47.1438 129.159C47.1438 129.159 93.4145 99.476 93.4145 65.9604C93.4145 52.5553 87.6869 40.5169 78.57 32.0682H78.5882H78.5943ZM20.4855 9.83778C26.2679 7.83948 35.5852 5.45851 47.162 5.45851C58.7388 5.45851 68.0561 7.8334 73.8384 9.83778C75.2719 10.3358 76.0433 11.8725 75.5817 13.3606C73.9235 18.6813 73.6319 24.3543 73.6684 28.0655C66.1611 22.7994 57.032 19.6835 47.162 19.6835C37.2919 19.6835 28.1629 22.7933 20.6556 28.0655C20.6921 24.3543 20.4187 18.6753 18.7423 13.3606C18.2807 11.8908 19.0521 10.3358 20.4855 9.83778ZM47.162 99.476C28.4909 99.476 13.3548 84.3399 13.3548 65.6688V65.6202C31.7708 65.0918 46.5789 50.2837 47.1073 31.8677H47.2106C47.739 50.2837 62.5471 65.0918 80.9631 65.6202V65.6688C80.9631 84.3399 65.827 99.476 47.1559 99.476H47.162ZM50.12 11.0526H48.5954V9.52802C48.5954 8.72626 47.9455 8.07635 47.1438 8.07635C46.342 8.07635 45.6921 8.72626 45.6921 9.52802V11.0526H44.1676C43.3658 11.0526 42.7159 11.7025 42.7159 12.5042C42.7159 13.306 43.3658 13.9559 44.1676 13.9559H45.6921V15.4804C45.6921 16.2822 46.342 16.9321 47.1438 16.9321C47.9455 16.9321 48.5954 16.2822 48.5954 15.4804V13.9559H50.12C50.9217 13.9559 51.5716 13.306 51.5716 12.5042C51.5716 11.7025 50.9217 11.0526 50.12 11.0526ZM36.557 71.9128C35.8707 71.9128 35.2086 71.5909 34.8138 70.9713C33.8541 69.4832 32.2324 68.5964 30.4892 68.5964C28.746 68.5964 27.1182 69.4832 26.1646 70.9713C25.5512 71.931 24.2635 72.2043 23.3099 71.5848C22.3502 70.9713 22.0769 69.6837 22.6964 68.7301C24.4214 66.0636 27.3308 64.4723 30.4953 64.4723C33.6598 64.4723 36.5631 66.0636 38.2941 68.7301C38.9076 69.6897 38.6343 70.9713 37.6807 71.5848C37.3405 71.8095 36.9457 71.9067 36.5692 71.9067L36.557 71.9128ZM69.8844 71.9128C69.198 71.9128 68.536 71.5909 68.1412 70.9713C67.1815 69.4832 65.5598 68.5964 63.8166 68.5964C62.0734 68.5964 60.4456 69.4832 59.492 70.9713C58.8785 71.931 57.5908 72.2043 56.6372 71.5848C55.6776 70.9713 55.4042 69.6837 56.0238 68.7301C57.7488 66.0636 60.6581 64.4723 63.8226 64.4723C66.9871 64.4723 69.8904 66.0636 71.6215 68.7301C72.2349 69.6897 71.9616 70.9713 71.008 71.5848C70.6679 71.8095 70.2731 71.9067 69.8965 71.9067L69.8844 71.9128Z" fill="url(#paint0_linear_359_41)"/>
<path d="M143.136 59.9196C140.956 59.9196 138.939 59.5673 137.087 58.8567C135.234 58.146 133.63 57.1499 132.276 55.8623C130.922 54.5746 129.871 53.0622 129.124 51.3312C128.377 49.594 128 47.7051 128 45.6521C128 43.5991 128.377 41.7101 129.124 39.9791C129.871 38.242 130.928 36.7356 132.294 35.448C133.661 34.1603 135.264 33.1642 137.105 32.4536C138.945 31.7429 140.943 31.3906 143.094 31.3906C145.244 31.3906 147.278 31.7429 149.107 32.4536C150.935 33.1642 152.52 34.1603 153.875 35.448C155.229 36.7356 156.286 38.242 157.045 39.9609C157.804 41.6798 158.187 43.5809 158.187 45.6582C158.187 47.7354 157.804 49.6062 157.045 51.3555C156.28 53.1047 155.223 54.611 153.875 55.8866C152.52 57.1621 150.929 58.1521 149.107 58.8628C147.278 59.5734 145.292 59.9257 143.136 59.9257V59.9196ZM143.1 54.4774C144.333 54.4774 145.468 54.2648 146.507 53.8457C147.546 53.4266 148.457 52.8193 149.246 52.0297C150.036 51.2401 150.643 50.3107 151.081 49.2296C151.512 48.1545 151.731 46.958 151.731 45.6399C151.731 44.3219 151.512 43.1314 151.081 42.0503C150.649 40.9752 150.042 40.0398 149.265 39.2502C148.487 38.4606 147.576 37.8593 146.525 37.4341C145.475 37.015 144.333 36.8024 143.094 36.8024C141.855 36.8024 140.725 37.015 139.686 37.4341C138.647 37.8532 137.736 38.4606 136.947 39.2502C136.157 40.0398 135.55 40.9691 135.113 42.0503C134.681 43.1254 134.463 44.3219 134.463 45.6399C134.463 46.958 134.681 48.1181 135.113 49.2053C135.544 50.2986 136.151 51.234 136.929 52.0236C137.706 52.8132 138.617 53.4145 139.668 53.8397C140.719 54.2588 141.861 54.4713 143.1 54.4713V54.4774Z" fill="black"/>
<path d="M161.424 59.4452V31.8516H166.708L182.986 51.7192H180.423V31.8516H186.727V59.4452H181.486L165.165 39.5776H167.728V59.4452H161.424Z" fill="black"/>
<path d="M190.912 59.4452V31.8516H197.296V54.2399H211.132V59.4452H190.912Z" fill="black"/>
<path d="M212.828 59.4452L225.127 31.8516H231.432L243.768 59.4452H237.069L226.98 35.0829H229.5L219.369 59.4452H212.828ZM218.974 53.5353L220.669 48.6884H234.858L236.595 53.5353H218.974Z" fill="black"/>
<path d="M249.446 59.4452V48.1721L250.904 52.0351L238.762 31.8516H245.541L254.846 47.34H250.946L260.288 31.8516H266.556L254.415 52.0351L255.836 48.1721V59.4452H249.452H249.446Z" fill="black"/>
<path d="M268.955 59.4452V31.8516H274.24L290.518 51.7192H287.954V31.8516H294.259V59.4452H289.017L272.697 39.5776H275.26V59.4452H268.955Z" fill="black"/>
<path d="M311.706 59.0744H305.322V31.4805H311.706V59.0744ZM324.716 47.7585H311.238V42.3588H324.716V47.7585ZM324.242 31.4805H330.626V59.0744H324.242V31.4805Z" fill="black"/>
<path d="M333.541 59.0744L345.841 31.4805H352.146L364.482 59.0744H357.782L347.693 34.7118H350.214L340.083 59.0744H333.541ZM339.688 53.1643L341.383 48.3173H355.571L357.308 53.1643H339.688Z" fill="black"/>
<path d="M367.361 59.0744V31.4805H372.645L384.392 50.9534H381.592L393.138 31.4805H398.38L398.459 59.0744H392.47L392.434 40.6642H393.539L384.313 56.1524H381.434L372.013 40.6642H373.356V59.0744H367.367H367.361Z" fill="black"/>
<path d="M413.285 59.5471C411.08 59.5471 408.961 59.2491 406.938 58.6601C404.915 58.0711 403.288 57.3001 402.049 56.3521L404.217 51.5418C405.401 52.3861 406.798 53.0724 408.414 53.613C410.03 54.1536 411.664 54.4211 413.322 54.4211C414.585 54.4211 415.599 54.2991 416.377 54.0443C417.154 53.7952 417.725 53.449 418.09 52.9996C418.46 52.5501 418.642 52.0399 418.642 51.4629C418.642 50.7279 418.351 50.1448 417.774 49.7075C417.197 49.2763 416.432 48.9179 415.49 48.6446C414.543 48.3713 413.498 48.104 412.356 47.855C411.214 47.606 410.072 47.2962 408.924 46.9257C407.782 46.5552 406.738 46.0875 405.79 45.5044C404.843 44.9274 404.077 44.1621 403.482 43.2206C402.893 42.2731 402.595 41.0644 402.595 39.5945C402.595 38.0153 403.02 36.5819 403.877 35.276C404.733 33.9762 406.021 32.9376 407.74 32.1601C409.459 31.3826 411.621 31 414.227 31C415.964 31 417.671 31.2065 419.353 31.6135C421.035 32.0204 422.518 32.6339 423.805 33.4478L421.831 38.2947C420.544 37.5598 419.256 37.0131 417.968 36.6609C416.681 36.3086 415.417 36.1263 414.184 36.1263C412.951 36.1263 411.937 36.2721 411.147 36.5576C410.358 36.8491 409.793 37.2196 409.453 37.6813C409.112 38.1429 408.942 38.6713 408.942 39.2787C408.942 39.9893 409.234 40.5603 409.811 40.9915C410.388 41.4228 411.153 41.775 412.095 42.0362C413.042 42.2974 414.087 42.5647 415.229 42.8258C416.371 43.087 417.513 43.3907 418.661 43.7308C419.803 44.071 420.847 44.5326 421.795 45.1096C422.742 45.6866 423.508 46.4519 424.103 47.3934C424.692 48.3409 424.99 49.5375 424.99 50.983C424.99 52.5319 424.558 53.9532 423.69 55.2411C422.821 56.5281 421.527 57.5671 419.809 58.3571C418.09 59.1461 415.909 59.5411 413.285 59.5411V59.5471Z" fill="black"/>
<path d="M434.964 59.0744H428.58V31.4805H434.964V59.0744ZM447.974 47.7585H434.496V42.3588H447.974V47.7585ZM447.5 31.4805H453.884V59.0744H447.5V31.4805Z" fill="black"/>
<path d="M458.852 59.0744V31.4805H465.236V59.0744H458.852Z" fill="black"/>
<path d="M470.205 59.0744V31.4805H482.146C484.618 31.4805 486.744 31.8814 488.529 32.6831C490.315 33.4849 491.694 34.6329 492.666 36.1331C493.638 37.6333 494.123 39.4191 494.123 41.4963C494.123 43.5736 493.638 45.3107 492.666 46.7988C491.694 48.2808 490.315 49.4227 488.529 50.2063C486.744 50.9959 484.612 51.3907 482.146 51.3907H473.752L476.588 48.5906V59.0744H470.205ZM476.588 49.3013L473.752 46.3068H481.793C483.768 46.3068 485.237 45.8817 486.209 45.0253C487.181 44.1688 487.667 42.9966 487.667 41.4963C487.667 39.9961 487.181 38.7874 486.209 37.9492C485.237 37.111 483.768 36.6858 481.793 36.6858H473.752L476.588 33.6489V49.2952V49.3013ZM487.746 59.0744L480.846 49.0644H487.667L494.646 59.0744H487.746Z" fill="black"/>
<path d="M495.545 59.0744L507.844 31.4805H514.149L526.485 59.0744H519.785L509.697 34.7118H512.217L502.086 59.0744H495.545ZM501.691 53.1643L503.386 48.3173H517.575L519.312 53.1643H501.691Z" fill="black"/>
<path d="M128 98V81H135.299C137.172 81 138.615 81.3928 139.624 82.1785C140.634 82.964 141.135 84.0334 141.135 85.3937C141.135 86.3175 140.94 87.0959 140.544 87.7214C140.147 88.347 139.617 88.8417 138.949 89.1763C138.28 89.5182 137.563 89.6855 136.789 89.6855L137.208 88.9581C138.134 88.9581 138.956 89.1254 139.673 89.4673C140.39 89.8091 140.954 90.3039 141.373 90.9585C141.79 91.6132 142 92.4279 142 93.3954C142 94.8502 141.477 95.9778 140.432 96.7852C139.388 97.5927 137.834 97.9855 135.773 97.9855H128.007L128 98ZM130.327 96.036H135.675C136.964 96.036 137.946 95.8105 138.629 95.3594C139.311 94.9084 139.653 94.1956 139.653 93.2208C139.653 92.2461 139.311 91.5113 138.629 91.0603C137.946 90.6094 136.964 90.3839 135.675 90.3839H130.118V88.4197H135.09C136.268 88.4197 137.179 88.1942 137.834 87.7433C138.482 87.2923 138.81 86.6084 138.81 85.7065C138.81 84.8044 138.482 84.1207 137.834 83.6697C137.179 83.2186 136.268 82.9931 135.09 82.9931H130.327V96.0578V96.036Z" fill="black"/>
<path d="M146.5 82.9703C146.071 82.9703 145.711 82.8278 145.428 82.5428C145.145 82.258 145 81.909 145 81.4958C145 81.0827 145.145 80.7123 145.428 80.4273C145.711 80.1425 146.071 80 146.5 80C146.928 80 147.288 80.1425 147.571 80.4131C147.854 80.6909 148 81.0328 148 81.446C148 81.8591 147.861 82.2366 147.585 82.5287C147.308 82.8207 146.95 82.9703 146.5 82.9703ZM145.394 98V85.3993H147.606V98H145.394Z" fill="black"/>
<path d="M150 98V96.4796L158.425 86.131L158.892 86.939H150.148V85H160.8V86.5424L152.375 96.8616L151.833 96.0536H161V97.9927H150V98Z" fill="black"/>
<path d="M169 97.8559V80H171.271V88.4918L171.037 91.4546L171.179 94.4173V97.8559H169ZM175.657 98C174.584 98 173.612 97.7549 172.753 97.2648C171.895 96.7746 171.214 96.0465 170.717 95.0878C170.221 94.1218 169.972 92.9251 169.972 91.4762C169.972 90.0272 170.228 88.8306 170.738 87.8647C171.25 86.8987 171.938 86.1778 172.797 85.702C173.655 85.2191 174.606 84.9811 175.65 84.9811C176.883 84.9811 177.97 85.2551 178.921 85.7958C179.87 86.3436 180.616 87.1005 181.169 88.0664C181.723 89.0396 182 90.1714 182 91.469C182 92.7665 181.723 93.9055 181.169 94.8859C180.616 95.8663 179.863 96.6232 178.921 97.1711C177.977 97.719 176.883 97.9856 175.65 97.9856L175.657 98ZM175.465 95.9817C176.266 95.9817 176.989 95.7942 177.628 95.4266C178.268 95.0589 178.771 94.5327 179.147 93.8479C179.516 93.1631 179.701 92.3773 179.701 91.4762C179.701 90.5752 179.516 89.775 179.147 89.1046C178.778 88.4414 178.268 87.9224 177.628 87.5547C176.989 87.187 176.266 86.9996 175.465 86.9996C174.662 86.9996 173.96 87.187 173.321 87.5547C172.683 87.9224 172.179 88.4414 171.804 89.1046C171.435 89.7678 171.25 90.5607 171.25 91.4762C171.25 92.3917 171.435 93.1631 171.804 93.8479C172.172 94.5327 172.676 95.0517 173.321 95.4266C173.96 95.7942 174.676 95.9817 175.465 95.9817Z" fill="black"/>
<path d="M185.5 82.9703C185.071 82.9703 184.712 82.8278 184.428 82.5428C184.145 82.258 184 81.909 184 81.4958C184 81.0827 184.145 80.7123 184.428 80.4273C184.712 80.1425 185.071 80 185.5 80C185.929 80 186.288 80.1425 186.571 80.4131C186.854 80.6909 187 81.0328 187 81.446C187 81.8591 186.861 82.2366 186.586 82.5287C186.309 82.8207 185.95 82.9703 185.5 82.9703ZM184.394 98V85.3993H186.606V98H184.394Z" fill="black"/>
<path d="M190 98V80H193V98H190Z" fill="black"/>
<path d="M199.677 98C198.74 98 197.918 97.8416 197.21 97.5174C196.501 97.2006 195.959 96.754 195.572 96.1851C195.193 95.6161 195 94.9679 195 94.2476C195 93.5274 195.164 92.9369 195.486 92.375C195.815 91.8132 196.345 91.3668 197.088 91.0282C197.832 90.6897 198.826 90.524 200.085 90.524H204.098V92.1806H200.185C199.042 92.1806 198.269 92.375 197.867 92.7567C197.467 93.1384 197.274 93.6066 197.274 94.1541C197.274 94.7806 197.518 95.2776 198.011 95.6593C198.505 96.0338 199.191 96.2211 200.064 96.2211C200.936 96.2211 201.673 96.0266 202.316 95.6449C202.961 95.2631 203.426 94.7014 203.712 93.9596L204.162 95.544C203.861 96.3003 203.326 96.8981 202.56 97.3374C201.795 97.7767 200.836 98 199.67 98H199.677ZM203.833 97.8559V95.1623L203.712 94.6581V90.0631C203.712 89.0836 203.426 88.3274 202.86 87.7944C202.295 87.2543 201.444 86.9877 200.315 86.9877C199.563 86.9877 198.833 87.1102 198.118 87.3623C197.404 87.6144 196.795 87.9457 196.301 88.3635L195.35 86.6348C196.001 86.1091 196.788 85.6985 197.704 85.4176C198.619 85.1368 199.577 85 200.578 85C202.316 85 203.647 85.4249 204.592 86.2747C205.529 87.1247 206 88.4211 206 90.1712V97.8632H203.826L203.833 97.8559Z" fill="black"/>
<path d="M216.741 85C217.778 85 218.687 85.2037 219.474 85.6038C220.261 86.0112 220.876 86.6223 221.327 87.4516C221.779 88.2809 222 89.3212 222 90.587V97.9927H219.71V90.8562C219.71 89.6122 219.409 88.6738 218.816 88.0409C218.222 87.4079 217.377 87.0952 216.297 87.0952C215.489 87.0952 214.772 87.2552 214.172 87.5825C213.564 87.91 213.098 88.3827 212.777 89.0157C212.447 89.6486 212.29 90.4343 212.29 91.3727V98H210V85.1309H212.197V88.6011L211.839 87.6771C212.254 86.8332 212.891 86.1786 213.75 85.7129C214.609 85.24 215.61 85.0073 216.762 85.0073L216.741 85Z" fill="black"/>
<path d="M236.488 97.9855C235.399 97.9855 234.44 97.7821 233.611 97.3827C232.782 96.976 232.14 96.3586 231.685 95.5307C231.232 94.6955 231 93.6498 231 92.3933V85H233.308V92.1245C233.308 93.3883 233.611 94.3324 234.209 94.9642C234.808 95.5962 235.659 95.9083 236.748 95.9083C237.548 95.9083 238.247 95.7413 238.84 95.4145C239.431 95.0804 239.892 94.6011 240.21 93.962C240.527 93.3229 240.693 92.5531 240.693 91.6453V85H243V97.8476H240.808V94.3832L241.168 95.3056C240.75 96.1626 240.123 96.8234 239.293 97.2955C238.457 97.7676 237.519 98 236.473 98L236.488 97.9855Z" fill="black"/>
<path d="M247.272 103C246.658 103 246.068 102.897 245.491 102.69C244.916 102.483 244.418 102.188 244 101.789L244.987 100.017C245.305 100.327 245.657 100.571 246.046 100.733C246.428 100.896 246.839 100.977 247.272 100.977C247.833 100.977 248.294 100.829 248.669 100.534C249.037 100.239 249.382 99.7145 249.707 98.954L250.499 97.1526L250.737 96.8572L255.737 85H258L251.817 99.3675C251.451 100.29 251.039 101.014 250.579 101.538C250.125 102.062 249.62 102.439 249.072 102.66C248.525 102.882 247.926 102.993 247.272 102.993V103ZM250.305 98.4889L244.483 85.0073H246.89L251.847 96.6432L250.305 98.4889Z" fill="black"/>
<path d="M264.348 97.9855C263.134 97.9855 262.05 97.7118 261.092 97.1717C260.135 96.6243 259.383 95.8679 258.829 94.8884C258.276 93.9087 258 92.7707 258 91.4742C258 90.1777 258.276 89.0396 258.829 88.0744C259.383 87.102 260.135 86.3458 261.092 85.8055C262.05 85.2581 263.134 84.9916 264.348 84.9916C265.404 84.9916 266.362 85.2293 267.213 85.7119C268.063 86.1944 268.745 86.9147 269.262 87.8727C269.773 88.8379 270.028 90.0336 270.028 91.4813C270.028 92.9292 269.78 94.1248 269.283 95.09C268.787 96.0552 268.113 96.7755 267.262 97.2653C266.411 97.7551 265.439 98 264.348 98V97.9855ZM264.539 95.9688C265.326 95.9688 266.042 95.7815 266.681 95.4142C267.319 95.0468 267.823 94.521 268.199 93.8367C268.568 93.1525 268.752 92.3673 268.752 91.467C268.752 90.5667 268.568 89.7671 268.199 89.0972C267.83 88.4346 267.319 87.916 266.681 87.5486C266.042 87.1812 265.326 86.994 264.539 86.994C263.752 86.994 263.014 87.1812 262.382 87.5486C261.752 87.916 261.247 88.4346 260.864 89.0972C260.49 89.7599 260.298 90.5522 260.298 91.467C260.298 92.3818 260.49 93.1525 260.864 93.8367C261.24 94.521 261.752 95.0396 262.382 95.4142C263.014 95.7815 263.73 95.9688 264.539 95.9688ZM268.822 97.8416V94.4057L268.965 91.4454L268.73 88.485V80H271V97.8416H268.822Z" fill="black"/>
<path d="M278.678 98C277.741 98 276.919 97.8416 276.21 97.5174C275.502 97.2006 274.958 96.754 274.572 96.1851C274.193 95.6161 274 94.9679 274 94.2476C274 93.5274 274.165 92.9369 274.486 92.375C274.816 91.8132 275.345 91.3668 276.089 91.0282C276.833 90.6897 277.827 90.524 279.086 90.524H283.097V92.1806H279.186C278.041 92.1806 277.269 92.375 276.868 92.7567C276.468 93.1384 276.275 93.6066 276.275 94.1541C276.275 94.7806 276.517 95.2776 277.012 95.6593C277.505 96.0338 278.192 96.2211 279.064 96.2211C279.937 96.2211 280.673 96.0266 281.317 95.6449C281.961 95.2631 282.425 94.7014 282.711 93.9596L283.162 95.544C282.862 96.3003 282.325 96.8981 281.561 97.3374C280.795 97.7767 279.837 98 278.671 98H278.678ZM282.833 97.8559V95.1623L282.711 94.6581V90.0631C282.711 89.0836 282.425 88.3274 281.861 87.7944C281.296 87.2543 280.444 86.9877 279.314 86.9877C278.564 86.9877 277.834 87.1102 277.119 87.3623C276.403 87.6144 275.796 87.9457 275.302 88.3635L274.351 86.6348C275.002 86.1091 275.789 85.6985 276.703 85.4176C277.62 85.1368 278.578 85 279.579 85C281.317 85 282.647 85.4249 283.592 86.2747C284.528 87.1247 285 88.4211 285 90.1712V97.8632H282.826L282.833 97.8559Z" fill="black"/>
<path d="M300.348 97.9858C299.135 97.9858 298.05 97.7118 297.093 97.1723C296.136 96.6244 295.384 95.8678 294.83 94.8882C294.277 93.9087 294 92.7703 294 91.4742C294 90.1777 294.277 89.0396 294.83 88.0744C295.384 87.102 296.136 86.3458 297.093 85.8056C298.05 85.2581 299.135 84.9916 300.348 84.9916C301.405 84.9916 302.362 85.2293 303.212 85.7119C304.063 86.1944 304.744 86.9147 305.263 87.8727C305.773 88.8379 306.029 90.0336 306.029 91.4815C306.029 92.9292 305.78 94.1245 305.284 95.0898C304.787 96.0552 304.114 96.775 303.263 97.2648C302.411 97.7557 301.44 98 300.348 98V97.9858ZM300.54 95.9686C301.327 95.9686 302.042 95.7812 302.681 95.4136C303.32 95.0472 303.823 94.5206 304.199 93.8364C304.568 93.1521 304.751 92.3674 304.751 91.467C304.751 90.5667 304.568 89.7671 304.199 89.0972C303.83 88.4346 303.32 87.916 302.681 87.5486C302.042 87.1813 301.327 86.994 300.54 86.994C299.752 86.994 299.015 87.1813 298.383 87.5486C297.753 87.916 297.248 88.4346 296.865 89.0972C296.489 89.7599 296.298 90.5522 296.298 91.467C296.298 92.3818 296.489 93.1521 296.865 93.8364C297.241 94.5206 297.753 95.04 298.383 95.4136C299.015 95.7812 299.731 95.9686 300.54 95.9686ZM304.822 97.8411V94.4056L304.965 91.4454L304.73 88.485V80H307V97.8411H304.822Z" fill="black"/>
<path d="M313.678 98C312.741 98 311.918 97.8411 311.21 97.5174C310.502 97.2008 309.958 96.7538 309.572 96.1846C309.193 95.6155 309 94.968 309 94.2471C309 93.5273 309.165 92.9368 309.486 92.375C309.816 91.8132 310.345 91.3667 311.089 91.0282C311.833 90.6897 312.827 90.5241 314.086 90.5241H318.097V92.1806H314.186C313.041 92.1806 312.269 92.375 311.868 92.7566C311.468 93.1384 311.275 93.6068 311.275 94.1534C311.275 94.7807 311.517 95.2775 312.011 95.6593C312.504 96.034 313.192 96.2214 314.064 96.2214C314.937 96.2214 315.673 96.0269 316.317 95.6451C316.961 95.2633 317.425 94.7012 317.711 93.959L318.162 95.5443C317.862 96.2996 317.325 96.8984 316.559 97.3372C315.794 97.7771 314.837 98 313.671 98H313.678ZM317.833 97.8553V95.1625L317.711 94.6585V90.0632C317.711 89.0836 317.425 88.3273 316.86 87.7945C316.296 87.2542 315.444 86.9878 314.314 86.9878C313.563 86.9878 312.834 87.1103 312.119 87.3624C311.403 87.6145 310.796 87.9456 310.302 88.3634L309.351 86.6349C310.002 86.1092 310.789 85.6986 311.703 85.4177C312.62 85.1368 313.578 85 314.579 85C316.317 85 317.647 85.425 318.591 86.2748C319.528 87.1246 320 88.421 320 90.1712V97.8625H317.825L317.833 97.8553Z" fill="black"/>
<path d="M327.36 98L322 85H324.314L329.079 96.7731H327.97L332.826 85H335L329.64 98H327.374H327.36Z" fill="black"/>
<path d="M341.51 98C340.252 98 339.135 97.7191 338.16 97.1574C337.185 96.5957 336.413 95.8265 335.848 94.8394C335.283 93.8534 335 92.7382 335 91.4855C335 90.233 335.283 89.0958 335.848 88.124C336.413 87.145 337.185 86.3821 338.16 85.8278C339.135 85.2735 340.252 85 341.51 85C342.769 85 343.864 85.2735 344.847 85.8278C345.829 86.3821 346.6 87.1379 347.159 88.1096C347.717 89.0813 348 90.2042 348 91.4855C348 92.7666 347.717 93.8759 347.159 94.8465C346.6 95.8265 345.829 96.5957 344.847 97.1503C343.864 97.712 342.748 97.9929 341.51 97.9929V98ZM341.51 95.9842C342.316 95.9842 343.03 95.7969 343.666 95.4295C344.303 95.0633 344.804 94.5372 345.165 93.8534C345.526 93.1696 345.71 92.3853 345.71 91.4855C345.71 90.5858 345.526 89.7868 345.165 89.1174C344.804 88.4551 344.303 87.9369 343.666 87.5698C343.03 87.2026 342.309 87.0155 341.51 87.0155C340.711 87.0155 339.99 87.2026 339.361 87.5698C338.732 87.9369 338.23 88.4551 337.848 89.1174C337.474 89.7796 337.283 90.5714 337.283 91.4855C337.283 92.3997 337.474 93.1696 337.848 93.8534C338.223 94.5372 338.732 95.0562 339.361 95.4295C339.99 95.7969 340.704 95.9842 341.51 95.9842Z" fill="black"/>
<path d="M351 98V80H353V98H351Z" fill="black"/>
<path d="M360.678 98C359.741 98 358.918 97.8411 358.21 97.5174C357.502 97.2008 356.958 96.7538 356.572 96.1846C356.193 95.6155 356 94.968 356 94.2471C356 93.5273 356.165 92.9368 356.486 92.375C356.816 91.8132 357.345 91.3667 358.089 91.0282C358.832 90.6897 359.827 90.5241 361.086 90.5241H365.097V92.1806H361.186C360.041 92.1806 359.269 92.375 358.868 92.7566C358.468 93.1384 358.275 93.6068 358.275 94.1534C358.275 94.7807 358.517 95.2775 359.011 95.6593C359.504 96.034 360.192 96.2214 361.064 96.2214C361.937 96.2214 362.673 96.0269 363.317 95.6451C363.96 95.2633 364.425 94.7012 364.711 93.959L365.162 95.5443C364.862 96.2996 364.325 96.8984 363.559 97.3372C362.794 97.7771 361.837 98 360.671 98H360.678ZM364.832 97.8553V95.1625L364.711 94.6585V90.0632C364.711 89.0836 364.425 88.3273 363.86 87.7945C363.296 87.2542 362.444 86.9878 361.314 86.9878C360.563 86.9878 359.834 87.1103 359.118 87.3624C358.403 87.6145 357.796 87.9456 357.302 88.3634L356.351 86.6349C357.002 86.1092 357.789 85.6986 358.703 85.4177C359.62 85.1368 360.578 85 361.579 85C363.317 85 364.647 85.425 365.591 86.2748C366.528 87.1246 367 88.421 367 90.1712V97.8625H364.825L364.832 97.8553Z" fill="black"/>
<path d="M376.741 85C377.779 85 378.687 85.2037 379.474 85.6039C380.262 86.0113 380.877 86.6224 381.327 87.4517C381.778 88.281 382 89.3214 382 90.5873V97.9928H379.711V90.8564C379.711 89.6124 379.41 88.6739 378.816 88.041C378.222 87.4081 377.378 87.0952 376.297 87.0952C375.488 87.0952 374.773 87.2553 374.172 87.5826C373.563 87.9101 373.099 88.3829 372.776 89.0158C372.447 89.6487 372.289 90.4345 372.289 91.373V98H370V85.131H372.196V88.6012L371.839 87.6772C372.254 86.8333 372.89 86.1786 373.749 85.713C374.608 85.2401 375.609 85.0073 376.762 85.0073L376.741 85Z" fill="black"/>
<path d="M387.5 82.9703C387.071 82.9703 386.711 82.8279 386.428 82.5429C386.145 82.258 386 81.909 386 81.4958C386 81.0827 386.145 80.7122 386.428 80.4274C386.711 80.1424 387.071 80 387.5 80C387.928 80 388.288 80.1424 388.571 80.4132C388.854 80.6909 389 81.0328 389 81.446C389 81.8591 388.861 82.2366 388.585 82.5287C388.308 82.8207 387.95 82.9703 387.5 82.9703ZM386.394 98V85.3994H388.606V98H386.394Z" fill="black"/>
<path d="M398.74 85C399.778 85 400.687 85.2037 401.474 85.6039C402.261 86.0113 402.877 86.6224 403.327 87.4517C403.778 88.281 404 89.3214 404 90.5873V97.9928H401.711V90.8564C401.711 89.6124 401.41 88.6739 400.816 88.041C400.221 87.4081 399.378 87.0952 398.297 87.0952C397.488 87.0952 396.773 87.2553 396.172 87.5826C395.563 87.9101 395.099 88.3829 394.776 89.0158C394.447 89.6487 394.289 90.4345 394.289 91.373V98H392V85.131H394.196V88.6012L393.839 87.6772C394.254 86.8333 394.89 86.1786 395.749 85.713C396.608 85.2401 397.609 85.0073 398.762 85.0073L398.74 85Z" fill="black"/>
<path d="M412.77 97.5573C411.48 97.5573 410.327 97.2928 409.309 96.7651C408.291 96.2374 407.485 95.4959 406.897 94.5504C406.302 93.6036 406 92.511 406 91.2714C406 90.0317 406.302 88.9169 406.897 87.978C407.492 87.0392 408.299 86.3057 409.309 85.7848C410.327 85.2641 411.48 85 412.77 85C413.908 85 414.948 85.2274 415.891 85.6748C416.834 86.1222 417.58 86.8118 418.146 87.7433C418.71 88.6748 418.99 89.8484 418.99 91.2714C418.99 92.6943 418.71 93.8463 418.146 94.7702C417.58 95.7012 416.834 96.398 415.891 96.8605C414.948 97.323 413.908 97.5573 412.77 97.5573ZM413.071 102.993C411.85 102.993 410.658 102.824 409.513 102.494C408.367 102.156 407.425 101.68 406.709 101.063L407.869 99.2516C408.487 99.7721 409.257 100.183 410.162 100.492C411.066 100.792 412.016 100.946 413.003 100.946C414.579 100.946 415.74 100.587 416.479 99.8675C417.218 99.1489 417.587 98.0561 417.587 96.5888V93.8463L417.836 91.2714L417.707 88.6747V85.1247H420V96.34C420 98.6285 419.412 100.308 418.236 101.387C417.06 102.464 415.34 103 413.079 103L413.071 102.993ZM413.049 95.5032C413.939 95.5032 414.73 95.3281 415.416 94.9682C416.102 94.6083 416.645 94.1096 417.037 93.472C417.429 92.8332 417.626 92.1001 417.626 91.2714C417.626 90.4425 417.429 89.7017 417.037 89.0708C416.645 88.4401 416.102 87.9414 415.416 87.5892C414.73 87.2372 413.939 87.0611 413.049 87.0611C412.159 87.0611 411.367 87.2372 410.675 87.5892C409.981 87.9414 409.43 88.4327 409.039 89.0708C408.646 89.7091 408.45 90.4425 408.45 91.2714C408.45 92.1001 408.646 92.8404 409.039 93.472C409.43 94.1096 409.981 94.6083 410.675 94.9682C411.367 95.3281 412.159 95.5032 413.049 95.5032Z" fill="black"/>
<path d="M424.52 98C424.093 98 423.726 97.848 423.436 97.5452C423.146 97.2424 423 96.8814 423 96.4634C423 96.0169 423.146 95.6417 423.436 95.3531C423.726 95.0646 424.093 94.9197 424.52 94.9197C424.95 94.9197 425.302 95.0646 425.586 95.3531C425.862 95.6417 426 96.0086 426 96.4634C426 96.8814 425.862 97.2424 425.586 97.5452C425.309 97.848 424.956 98 424.52 98ZM423.623 92.5329L423.207 81H425.813L425.379 92.5329H423.623Z" fill="black"/>
<defs>
<linearGradient id="paint0_linear_359_41" x1="20.1697" y1="34.6374" x2="92.6675" y2="92.157" gradientUnits="userSpaceOnUse">
<stop offset="0.11" stop-color="#54DE62"/>
<stop offset="0.84" stop-color="#1BB3F7"/>
</linearGradient>
</defs>
</svg>
