<svg width="254" height="125" viewBox="0 0 254 125" fill="none" xmlns="http://www.w3.org/2000/svg">
<path d="M145.39 18.37C145.39 18.28 145.43 18.2 145.43 18.11C145.43 18.06 144.91 12.77 146.32 8.28C147.05 5.95 145.83 3.49999 143.53 2.70999C139.95 1.46999 134.17 0 127.01 0C119.85 0 114.08 1.47999 110.49 2.70999C108.19 3.49999 106.97 5.95 107.7 8.28C109.11 12.77 108.6 18.06 108.59 18.11C108.59 18.2 108.62 18.29 108.62 18.37C103.29 23.31 99.94 30.35 99.94 38.19C99.94 57.79 127 75.15 127 75.15C127 75.15 154.06 57.79 154.06 38.19C154.06 30.35 150.71 23.31 145.38 18.37H145.39ZM111.41 5.37C114.79 4.2 120.24 2.81 127.01 2.81C133.78 2.81 139.23 4.2 142.61 5.37C143.45 5.66 143.9 6.55999 143.63 7.42999C142.66 10.54 142.49 13.86 142.51 16.03C138.12 12.95 132.78 11.13 127.01 11.13C121.24 11.13 115.9 12.95 111.51 16.03C111.53 13.86 111.37 10.54 110.39 7.42999C110.12 6.56999 110.57 5.66 111.41 5.37ZM127.01 57.79C116.09 57.79 107.24 48.94 107.24 38.02C107.24 38.01 107.24 38 107.24 37.99C118.01 37.68 126.67 29.02 126.98 18.25C126.98 18.25 127 18.25 127.01 18.25C127.02 18.25 127.03 18.25 127.04 18.25C127.35 29.02 136.01 37.68 146.78 37.99C146.78 38 146.78 38.01 146.78 38.02C146.78 48.94 137.93 57.79 127.01 57.79Z" fill="url(#paint0_linear_16_711)"/>
<path d="M128.74 6.08008H127.85V5.19009C127.85 4.72009 127.47 4.34009 127 4.34009C126.53 4.34009 126.15 4.72009 126.15 5.19009V6.08008H125.26C124.79 6.08008 124.41 6.46008 124.41 6.93008C124.41 7.40008 124.79 7.78009 125.26 7.78009H126.15V8.67007C126.15 9.14007 126.53 9.52008 127 9.52008C127.47 9.52008 127.85 9.14007 127.85 8.67007V7.78009H128.74C129.21 7.78009 129.59 7.40008 129.59 6.93008C129.59 6.46008 129.21 6.08008 128.74 6.08008Z" fill="url(#paint1_linear_16_711)"/>
<path d="M120.81 41.6701C120.41 41.6701 120.02 41.4801 119.79 41.1201C119.23 40.2501 118.28 39.7301 117.26 39.7301C116.24 39.7301 115.29 40.2501 114.73 41.1201C114.37 41.6801 113.62 41.8401 113.06 41.4801C112.5 41.1201 112.34 40.3701 112.7 39.8101C113.71 38.2501 115.41 37.3201 117.26 37.3201C119.11 37.3201 120.81 38.2501 121.82 39.8101C122.18 40.3701 122.02 41.1201 121.46 41.4801C121.26 41.6101 121.03 41.6701 120.81 41.6701Z" fill="url(#paint2_linear_16_711)"/>
<path d="M140.3 41.6701C139.9 41.6701 139.51 41.4801 139.28 41.1201C138.72 40.2501 137.77 39.7301 136.75 39.7301C135.73 39.7301 134.78 40.2501 134.22 41.1201C133.86 41.6801 133.11 41.8401 132.55 41.4801C131.99 41.1201 131.83 40.3701 132.19 39.8101C133.2 38.2501 134.9 37.3201 136.75 37.3201C138.6 37.3201 140.3 38.2501 141.31 39.8101C141.67 40.3701 141.51 41.1201 140.95 41.4801C140.75 41.6101 140.52 41.6701 140.3 41.6701Z" fill="url(#paint3_linear_16_711)"/>
<path d="M10.128 103.438C8.384 103.438 6.808 103.062 5.4 102.31C4.008 101.558 2.912 100.526 2.112 99.2139C1.328 97.8859 0.936 96.3979 0.936 94.7499C0.936 93.1019 1.328 91.6219 2.112 90.3099C2.912 88.9819 4.008 87.9419 5.4 87.1899C6.808 86.4379 8.384 86.0619 10.128 86.0619C11.872 86.0619 13.44 86.4379 14.832 87.1899C16.224 87.9419 17.32 88.9819 18.12 90.3099C18.92 91.6219 19.32 93.1019 19.32 94.7499C19.32 96.3979 18.92 97.8859 18.12 99.2139C17.32 100.526 16.224 101.558 14.832 102.31C13.44 103.062 11.872 103.438 10.128 103.438ZM10.128 100.126C11.12 100.126 12.016 99.9019 12.816 99.4539C13.616 98.9899 14.24 98.3499 14.688 97.5339C15.152 96.7179 15.384 95.7899 15.384 94.7499C15.384 93.7099 15.152 92.7819 14.688 91.9659C14.24 91.1499 13.616 90.5179 12.816 90.0699C12.016 89.6059 11.12 89.3739 10.128 89.3739C9.136 89.3739 8.24 89.6059 7.44 90.0699C6.64 90.5179 6.008 91.1499 5.544 91.9659C5.096 92.7819 4.872 93.7099 4.872 94.7499C4.872 95.7899 5.096 96.7179 5.544 97.5339C6.008 98.3499 6.64 98.9899 7.44 99.4539C8.24 99.9019 9.136 100.126 10.128 100.126ZM37.65 86.3499V103.15H34.458L26.082 92.9499V103.15H22.242V86.3499H25.458L33.81 96.5499V86.3499H37.65ZM41.6248 86.3499H45.5128V99.9819H53.9368V103.15H41.6248V86.3499ZM67.3138 99.5499H59.5138L58.0258 103.15H54.0418L61.5298 86.3499H65.3698L72.8818 103.15H68.8018L67.3138 99.5499ZM66.0898 96.5979L63.4258 90.1659L60.7618 96.5979H66.0898ZM81.6576 97.1979V103.15H77.7696V97.1499L71.2656 86.3499H75.3936L79.8816 93.8139L84.3696 86.3499H88.1856L81.6576 97.1979ZM105.056 86.3499V103.15H101.864L93.4883 92.9499V103.15H89.6483V86.3499H92.8643L101.216 96.5499V86.3499H105.056ZM131.236 86.3499V103.15H127.348V96.2619H119.716V103.15H115.828V86.3499H119.716V92.9739H127.348V86.3499H131.236ZM146.275 99.5499H138.475L136.987 103.15H133.003L140.491 86.3499H144.331L151.843 103.15H147.763L146.275 99.5499ZM145.051 96.5979L142.387 90.1659L139.723 96.5979H145.051ZM168.874 103.15L168.85 93.0699L163.906 101.374H162.154L157.234 93.2859V103.15H153.586V86.3499H156.802L163.09 96.7899L169.282 86.3499H172.474L172.522 103.15H168.874ZM182.028 103.438C180.7 103.438 179.412 103.262 178.164 102.91C176.932 102.542 175.94 102.07 175.188 101.494L176.508 98.5659C177.228 99.0939 178.084 99.5179 179.076 99.8379C180.068 100.158 181.06 100.318 182.052 100.318C183.156 100.318 183.972 100.158 184.5 99.8379C185.028 99.5019 185.292 99.0619 185.292 98.5179C185.292 98.1179 185.132 97.7899 184.812 97.5339C184.508 97.2619 184.108 97.0459 183.612 96.8859C183.132 96.7259 182.476 96.5499 181.644 96.3579C180.364 96.0539 179.316 95.7499 178.5 95.4459C177.684 95.1419 176.98 94.6539 176.388 93.9819C175.812 93.3099 175.524 92.4139 175.524 91.2939C175.524 90.3179 175.788 89.4379 176.316 88.6539C176.844 87.8539 177.636 87.2219 178.692 86.7579C179.764 86.2939 181.068 86.0619 182.604 86.0619C183.676 86.0619 184.724 86.1899 185.748 86.4459C186.772 86.7019 187.668 87.0699 188.436 87.5499L187.236 90.5019C185.684 89.6219 184.132 89.1819 182.58 89.1819C181.492 89.1819 180.684 89.3579 180.156 89.7099C179.644 90.0619 179.388 90.5259 179.388 91.1019C179.388 91.6779 179.684 92.1099 180.276 92.3979C180.884 92.6699 181.804 92.9419 183.036 93.2139C184.316 93.5179 185.364 93.8219 186.18 94.1259C186.996 94.4299 187.692 94.9099 188.268 95.5659C188.86 96.2219 189.156 97.1099 189.156 98.2299C189.156 99.1899 188.884 100.07 188.34 100.87C187.812 101.654 187.012 102.278 185.94 102.742C184.868 103.206 183.564 103.438 182.028 103.438ZM207.22 86.3499V103.15H203.332V96.2619H195.7V103.15H191.812V86.3499H195.7V92.9739H203.332V86.3499H207.22ZM211.195 86.3499H215.083V103.15H211.195V86.3499ZM229.774 103.15L226.534 98.4699H226.342H222.958V103.15H219.07V86.3499H226.342C227.83 86.3499 229.118 86.5979 230.206 87.0939C231.31 87.5899 232.158 88.2939 232.75 89.2059C233.342 90.1179 233.638 91.1979 233.638 92.4459C233.638 93.6939 233.334 94.7739 232.726 95.6859C232.134 96.5819 231.286 97.2699 230.182 97.7499L233.95 103.15H229.774ZM229.702 92.4459C229.702 91.5019 229.398 90.7819 228.79 90.2859C228.182 89.7739 227.294 89.5179 226.126 89.5179H222.958V95.3739H226.126C227.294 95.3739 228.182 95.1179 228.79 94.6059C229.398 94.0939 229.702 93.3739 229.702 92.4459ZM247.783 99.5499H239.983L238.495 103.15H234.511L241.999 86.3499H245.839L253.351 103.15H249.271L247.783 99.5499ZM246.559 96.5979L243.895 90.1659L241.231 96.5979H246.559Z" fill="black"/>
<path d="M44.184 121.222C43.56 121.222 42.96 121.122 42.384 120.922C41.816 120.722 41.376 120.458 41.064 120.13L41.412 119.446C41.716 119.75 42.12 119.998 42.624 120.19C43.128 120.374 43.648 120.466 44.184 120.466C44.936 120.466 45.5 120.33 45.876 120.058C46.252 119.778 46.44 119.418 46.44 118.978C46.44 118.642 46.336 118.374 46.128 118.174C45.928 117.974 45.68 117.822 45.384 117.718C45.088 117.606 44.676 117.486 44.148 117.358C43.516 117.198 43.012 117.046 42.636 116.902C42.26 116.75 41.936 116.522 41.664 116.218C41.4 115.914 41.268 115.502 41.268 114.982C41.268 114.558 41.38 114.174 41.604 113.83C41.828 113.478 42.172 113.198 42.636 112.99C43.1 112.782 43.676 112.678 44.364 112.678C44.844 112.678 45.312 112.746 45.768 112.882C46.232 113.01 46.632 113.19 46.968 113.422L46.668 114.13C46.316 113.898 45.94 113.726 45.54 113.614C45.14 113.494 44.748 113.434 44.364 113.434C43.628 113.434 43.072 113.578 42.696 113.866C42.328 114.146 42.144 114.51 42.144 114.958C42.144 115.294 42.244 115.566 42.444 115.774C42.652 115.974 42.908 116.13 43.212 116.242C43.524 116.346 43.94 116.462 44.46 116.59C45.076 116.742 45.572 116.894 45.948 117.046C46.332 117.19 46.656 117.414 46.92 117.718C47.184 118.014 47.316 118.418 47.316 118.93C47.316 119.354 47.2 119.742 46.968 120.094C46.744 120.438 46.396 120.714 45.924 120.922C45.452 121.122 44.872 121.222 44.184 121.222ZM51.6508 121.21C51.0428 121.21 50.4948 121.074 50.0068 120.802C49.5188 120.522 49.1348 120.138 48.8548 119.65C48.5748 119.162 48.4348 118.61 48.4348 117.994C48.4348 117.378 48.5748 116.826 48.8548 116.338C49.1348 115.85 49.5188 115.47 50.0068 115.198C50.4948 114.926 51.0428 114.79 51.6508 114.79C52.2588 114.79 52.8068 114.926 53.2948 115.198C53.7828 115.47 54.1628 115.85 54.4348 116.338C54.7148 116.826 54.8548 117.378 54.8548 117.994C54.8548 118.61 54.7148 119.162 54.4348 119.65C54.1628 120.138 53.7828 120.522 53.2948 120.802C52.8068 121.074 52.2588 121.21 51.6508 121.21ZM51.6508 120.454C52.0988 120.454 52.4988 120.354 52.8508 120.154C53.2108 119.946 53.4908 119.654 53.6908 119.278C53.8908 118.902 53.9908 118.474 53.9908 117.994C53.9908 117.514 53.8908 117.086 53.6908 116.71C53.4908 116.334 53.2108 116.046 52.8508 115.846C52.4988 115.638 52.0988 115.534 51.6508 115.534C51.2028 115.534 50.7988 115.638 50.4388 115.846C50.0868 116.046 49.8068 116.334 49.5988 116.71C49.3988 117.086 49.2988 117.514 49.2988 117.994C49.2988 118.474 49.3988 118.902 49.5988 119.278C49.8068 119.654 50.0868 119.946 50.4388 120.154C50.7988 120.354 51.2028 120.454 51.6508 120.454ZM62.4383 114.838V120.382C62.4383 121.454 62.1743 122.246 61.6463 122.758C61.1263 123.278 60.3383 123.538 59.2823 123.538C58.6983 123.538 58.1423 123.45 57.6143 123.274C57.0943 123.106 56.6703 122.87 56.3423 122.566L56.7743 121.918C57.0783 122.19 57.4463 122.402 57.8783 122.554C58.3183 122.706 58.7783 122.782 59.2583 122.782C60.0583 122.782 60.6463 122.594 61.0223 122.218C61.3983 121.85 61.5863 121.274 61.5863 120.49V119.686C61.3223 120.086 60.9743 120.39 60.5423 120.598C60.1183 120.806 59.6463 120.91 59.1263 120.91C58.5343 120.91 57.9943 120.782 57.5063 120.526C57.0263 120.262 56.6463 119.898 56.3663 119.434C56.0943 118.962 55.9583 118.43 55.9583 117.838C55.9583 117.246 56.0943 116.718 56.3663 116.254C56.6463 115.79 57.0263 115.43 57.5063 115.174C57.9863 114.918 58.5263 114.79 59.1263 114.79C59.6623 114.79 60.1463 114.898 60.5783 115.114C61.0103 115.33 61.3583 115.642 61.6223 116.05V114.838H62.4383ZM59.2103 120.154C59.6663 120.154 60.0783 120.058 60.4463 119.866C60.8143 119.666 61.0983 119.39 61.2983 119.038C61.5063 118.686 61.6103 118.286 61.6103 117.838C61.6103 117.39 61.5063 116.994 61.2983 116.65C61.0983 116.298 60.8143 116.026 60.4463 115.834C60.0863 115.634 59.6743 115.534 59.2103 115.534C58.7543 115.534 58.3423 115.63 57.9743 115.822C57.6143 116.014 57.3303 116.286 57.1223 116.638C56.9223 116.99 56.8223 117.39 56.8223 117.838C56.8223 118.286 56.9223 118.686 57.1223 119.038C57.3303 119.39 57.6143 119.666 57.9743 119.866C58.3423 120.058 58.7543 120.154 59.2103 120.154ZM65.0968 113.974C65.2328 114.014 65.3368 114.09 65.4088 114.202C65.4888 114.306 65.5288 114.434 65.5288 114.586C65.5288 114.778 65.4688 114.934 65.3488 115.054C65.2288 115.174 65.0808 115.234 64.9048 115.234C64.7128 115.234 64.5568 115.174 64.4368 115.054C64.3248 114.926 64.2688 114.77 64.2688 114.586C64.2688 114.49 64.2768 114.398 64.2928 114.31C64.3168 114.214 64.3608 114.078 64.4248 113.902L64.9288 112.246H65.5048L65.0968 113.974ZM67.3638 112.246H68.2158V121.15H67.3638V112.246ZM70.5864 114.838H71.4384V121.15H70.5864V114.838ZM71.0184 113.458C70.8424 113.458 70.6944 113.398 70.5744 113.278C70.4544 113.158 70.3944 113.014 70.3944 112.846C70.3944 112.686 70.4544 112.546 70.5744 112.426C70.6944 112.306 70.8424 112.246 71.0184 112.246C71.1944 112.246 71.3424 112.306 71.4624 112.426C71.5824 112.538 71.6424 112.674 71.6424 112.834C71.6424 113.01 71.5824 113.158 71.4624 113.278C71.3424 113.398 71.1944 113.458 71.0184 113.458ZM79.6531 114.838V120.382C79.6531 121.454 79.3891 122.246 78.8611 122.758C78.3411 123.278 77.5531 123.538 76.4971 123.538C75.9131 123.538 75.3571 123.45 74.8291 123.274C74.3091 123.106 73.8851 122.87 73.5571 122.566L73.9891 121.918C74.2931 122.19 74.6611 122.402 75.0931 122.554C75.5331 122.706 75.9931 122.782 76.4731 122.782C77.2731 122.782 77.8611 122.594 78.2371 122.218C78.6131 121.85 78.8011 121.274 78.8011 120.49V119.686C78.5371 120.086 78.1891 120.39 77.7571 120.598C77.3331 120.806 76.8611 120.91 76.3411 120.91C75.7491 120.91 75.2091 120.782 74.7211 120.526C74.2411 120.262 73.8611 119.898 73.5811 119.434C73.3091 118.962 73.1731 118.43 73.1731 117.838C73.1731 117.246 73.3091 116.718 73.5811 116.254C73.8611 115.79 74.2411 115.43 74.7211 115.174C75.2011 114.918 75.7411 114.79 76.3411 114.79C76.8771 114.79 77.3611 114.898 77.7931 115.114C78.2251 115.33 78.5731 115.642 78.8371 116.05V114.838H79.6531ZM76.4251 120.154C76.8811 120.154 77.2931 120.058 77.6611 119.866C78.0291 119.666 78.3131 119.39 78.5131 119.038C78.7211 118.686 78.8251 118.286 78.8251 117.838C78.8251 117.39 78.7211 116.994 78.5131 116.65C78.3131 116.298 78.0291 116.026 77.6611 115.834C77.3011 115.634 76.8891 115.534 76.4251 115.534C75.9691 115.534 75.5571 115.63 75.1891 115.822C74.8291 116.014 74.5451 116.286 74.3371 116.638C74.1371 116.99 74.0371 117.39 74.0371 117.838C74.0371 118.286 74.1371 118.686 74.3371 119.038C74.5451 119.39 74.8291 119.666 75.1891 119.866C75.5571 120.058 75.9691 120.154 76.4251 120.154ZM82.0357 114.838H82.8877V121.15H82.0357V114.838ZM82.4677 113.458C82.2917 113.458 82.1437 113.398 82.0237 113.278C81.9037 113.158 81.8437 113.014 81.8437 112.846C81.8437 112.686 81.9037 112.546 82.0237 112.426C82.1437 112.306 82.2917 112.246 82.4677 112.246C82.6437 112.246 82.7917 112.306 82.9117 112.426C83.0317 112.538 83.0917 112.674 83.0917 112.834C83.0917 113.01 83.0317 113.158 82.9117 113.278C82.7917 113.398 82.6437 113.458 82.4677 113.458ZM88.4743 114.79C89.2663 114.79 89.8943 115.022 90.3583 115.486C90.8303 115.942 91.0663 116.61 91.0663 117.49V121.15H90.2143V117.574C90.2143 116.918 90.0503 116.418 89.7223 116.074C89.3943 115.73 88.9263 115.558 88.3183 115.558C87.6383 115.558 87.0983 115.762 86.6983 116.17C86.3063 116.57 86.1103 117.126 86.1103 117.838V121.15H85.2583V114.838H86.0743V116.002C86.3063 115.618 86.6263 115.322 87.0343 115.114C87.4503 114.898 87.9303 114.79 88.4743 114.79ZM99.2468 114.838V120.382C99.2468 121.454 98.9828 122.246 98.4548 122.758C97.9348 123.278 97.1468 123.538 96.0908 123.538C95.5068 123.538 94.9508 123.45 94.4228 123.274C93.9028 123.106 93.4788 122.87 93.1508 122.566L93.5828 121.918C93.8868 122.19 94.2548 122.402 94.6868 122.554C95.1268 122.706 95.5868 122.782 96.0668 122.782C96.8668 122.782 97.4548 122.594 97.8308 122.218C98.2068 121.85 98.3948 121.274 98.3948 120.49V119.686C98.1308 120.086 97.7828 120.39 97.3508 120.598C96.9268 120.806 96.4548 120.91 95.9348 120.91C95.3428 120.91 94.8028 120.782 94.3148 120.526C93.8348 120.262 93.4548 119.898 93.1748 119.434C92.9028 118.962 92.7668 118.43 92.7668 117.838C92.7668 117.246 92.9028 116.718 93.1748 116.254C93.4548 115.79 93.8348 115.43 94.3148 115.174C94.7948 114.918 95.3348 114.79 95.9348 114.79C96.4708 114.79 96.9548 114.898 97.3868 115.114C97.8188 115.33 98.1668 115.642 98.4308 116.05V114.838H99.2468ZM96.0188 120.154C96.4748 120.154 96.8868 120.058 97.2548 119.866C97.6228 119.666 97.9068 119.39 98.1068 119.038C98.3148 118.686 98.4188 118.286 98.4188 117.838C98.4188 117.39 98.3148 116.994 98.1068 116.65C97.9068 116.298 97.6228 116.026 97.2548 115.834C96.8948 115.634 96.4828 115.534 96.0188 115.534C95.5628 115.534 95.1508 115.63 94.7828 115.822C94.4228 116.014 94.1388 116.286 93.9308 116.638C93.7308 116.99 93.6308 117.39 93.6308 117.838C93.6308 118.286 93.7308 118.686 93.9308 119.038C94.1388 119.39 94.4228 119.666 94.7828 119.866C95.1508 120.058 95.5628 120.154 96.0188 120.154ZM101.629 114.838H102.481V121.15H101.629V114.838ZM102.061 113.458C101.885 113.458 101.737 113.398 101.617 113.278C101.497 113.158 101.437 113.014 101.437 112.846C101.437 112.686 101.497 112.546 101.617 112.426C101.737 112.306 101.885 112.246 102.061 112.246C102.237 112.246 102.385 112.306 102.505 112.426C102.625 112.538 102.685 112.674 102.685 112.834C102.685 113.01 102.625 113.158 102.505 113.278C102.385 113.398 102.237 113.458 102.061 113.458ZM109.304 120.442V121.15H104.168V120.586L108.14 115.558H104.24V114.838H109.232V115.402L105.26 120.442H109.304ZM117.374 114.79C117.966 114.79 118.502 114.926 118.982 115.198C119.462 115.462 119.838 115.838 120.11 116.326C120.382 116.814 120.518 117.37 120.518 117.994C120.518 118.618 120.382 119.174 120.11 119.662C119.838 120.15 119.462 120.53 118.982 120.802C118.502 121.074 117.966 121.21 117.374 121.21C116.846 121.21 116.37 121.098 115.946 120.874C115.53 120.65 115.194 120.326 114.938 119.902V121.15H114.122V112.246H114.974V116.038C115.238 115.63 115.574 115.322 115.982 115.114C116.398 114.898 116.862 114.79 117.374 114.79ZM117.314 120.454C117.754 120.454 118.154 120.354 118.514 120.154C118.874 119.946 119.154 119.654 119.354 119.278C119.562 118.902 119.666 118.474 119.666 117.994C119.666 117.514 119.562 117.086 119.354 116.71C119.154 116.334 118.874 116.046 118.514 115.846C118.154 115.638 117.754 115.534 117.314 115.534C116.866 115.534 116.462 115.638 116.102 115.846C115.75 116.046 115.47 116.334 115.262 116.71C115.062 117.086 114.962 117.514 114.962 117.994C114.962 118.474 115.062 118.902 115.262 119.278C115.47 119.654 115.75 119.946 116.102 120.154C116.462 120.354 116.866 120.454 117.314 120.454ZM122.254 114.838H123.106V121.15H122.254V114.838ZM122.686 113.458C122.51 113.458 122.362 113.398 122.242 113.278C122.122 113.158 122.062 113.014 122.062 112.846C122.062 112.686 122.122 112.546 122.242 112.426C122.362 112.306 122.51 112.246 122.686 112.246C122.862 112.246 123.01 112.306 123.13 112.426C123.25 112.538 123.31 112.674 123.31 112.834C123.31 113.01 123.25 113.158 123.13 113.278C123.01 113.398 122.862 113.458 122.686 113.458ZM129.929 120.442V121.15H124.793V120.586L128.765 115.558H124.865V114.838H129.857V115.402L125.885 120.442H129.929ZM140.435 114.838V121.15H139.619V119.998C139.395 120.382 139.087 120.682 138.695 120.898C138.303 121.106 137.855 121.21 137.351 121.21C136.527 121.21 135.875 120.982 135.395 120.526C134.923 120.062 134.687 119.386 134.687 118.498V114.838H135.539V118.414C135.539 119.078 135.703 119.582 136.031 119.926C136.359 120.27 136.827 120.442 137.435 120.442C138.099 120.442 138.623 120.242 139.007 119.842C139.391 119.434 139.583 118.87 139.583 118.15V114.838H140.435ZM145.437 121.21C144.813 121.21 144.253 121.074 143.757 120.802C143.269 120.53 142.885 120.15 142.605 119.662C142.325 119.166 142.185 118.61 142.185 117.994C142.185 117.378 142.325 116.826 142.605 116.338C142.885 115.85 143.269 115.47 143.757 115.198C144.253 114.926 144.813 114.79 145.437 114.79C145.981 114.79 146.465 114.898 146.889 115.114C147.321 115.322 147.661 115.63 147.909 116.038L147.273 116.47C147.065 116.158 146.801 115.926 146.481 115.774C146.161 115.614 145.813 115.534 145.437 115.534C144.981 115.534 144.569 115.638 144.201 115.846C143.841 116.046 143.557 116.334 143.349 116.71C143.149 117.086 143.049 117.514 143.049 117.994C143.049 118.482 143.149 118.914 143.349 119.29C143.557 119.658 143.841 119.946 144.201 120.154C144.569 120.354 144.981 120.454 145.437 120.454C145.813 120.454 146.161 120.378 146.481 120.226C146.801 120.074 147.065 119.842 147.273 119.53L147.909 119.962C147.661 120.37 147.321 120.682 146.889 120.898C146.457 121.106 145.973 121.21 145.437 121.21ZM152.705 114.79C153.497 114.79 154.125 115.022 154.589 115.486C155.061 115.942 155.297 116.61 155.297 117.49V121.15H154.445V117.574C154.445 116.918 154.281 116.418 153.953 116.074C153.625 115.73 153.157 115.558 152.549 115.558C151.869 115.558 151.329 115.762 150.929 116.17C150.537 116.57 150.341 117.126 150.341 117.838V121.15H149.489V112.246H150.341V115.942C150.573 115.574 150.893 115.29 151.301 115.09C151.709 114.89 152.177 114.79 152.705 114.79ZM163.298 114.838V121.15H162.482V119.998C162.258 120.382 161.95 120.682 161.558 120.898C161.166 121.106 160.718 121.21 160.214 121.21C159.39 121.21 158.738 120.982 158.258 120.526C157.786 120.062 157.55 119.386 157.55 118.498V114.838H158.402V118.414C158.402 119.078 158.566 119.582 158.894 119.926C159.222 120.27 159.69 120.442 160.298 120.442C160.962 120.442 161.486 120.242 161.87 119.842C162.254 119.434 162.446 118.87 162.446 118.15V114.838H163.298ZM168.9 114.79C169.692 114.79 170.32 115.022 170.784 115.486C171.256 115.942 171.492 116.61 171.492 117.49V121.15H170.64V117.574C170.64 116.918 170.476 116.418 170.148 116.074C169.82 115.73 169.352 115.558 168.744 115.558C168.064 115.558 167.524 115.762 167.124 116.17C166.732 116.57 166.536 117.126 166.536 117.838V121.15H165.684V114.838H166.5V116.002C166.732 115.618 167.052 115.322 167.46 115.114C167.876 114.898 168.356 114.79 168.9 114.79ZM182.706 114.838V123.478H181.854V119.962C181.59 120.37 181.25 120.682 180.834 120.898C180.426 121.106 179.966 121.21 179.454 121.21C178.854 121.21 178.314 121.078 177.834 120.814C177.362 120.542 176.99 120.162 176.718 119.674C176.446 119.186 176.31 118.626 176.31 117.994C176.31 117.37 176.446 116.814 176.718 116.326C176.99 115.838 177.366 115.462 177.846 115.198C178.326 114.926 178.862 114.79 179.454 114.79C179.982 114.79 180.454 114.902 180.87 115.126C181.294 115.35 181.634 115.67 181.89 116.086V114.838H182.706ZM179.526 120.454C179.966 120.454 180.362 120.354 180.714 120.154C181.074 119.946 181.354 119.654 181.554 119.278C181.762 118.902 181.866 118.474 181.866 117.994C181.866 117.514 181.762 117.09 181.554 116.722C181.354 116.346 181.074 116.054 180.714 115.846C180.362 115.638 179.966 115.534 179.526 115.534C179.078 115.534 178.674 115.638 178.314 115.846C177.962 116.054 177.682 116.346 177.474 116.722C177.274 117.09 177.174 117.514 177.174 117.994C177.174 118.474 177.274 118.902 177.474 119.278C177.682 119.654 177.962 119.946 178.314 120.154C178.674 120.354 179.078 120.454 179.526 120.454ZM187.287 114.79C188.111 114.79 188.743 114.998 189.183 115.414C189.623 115.822 189.843 116.43 189.843 117.238V121.15H189.027V120.166C188.835 120.494 188.551 120.75 188.175 120.934C187.807 121.118 187.367 121.21 186.855 121.21C186.151 121.21 185.591 121.042 185.175 120.706C184.759 120.37 184.551 119.926 184.551 119.374C184.551 118.838 184.743 118.406 185.127 118.078C185.519 117.75 186.139 117.586 186.987 117.586H188.991V117.202C188.991 116.658 188.839 116.246 188.535 115.966C188.231 115.678 187.787 115.534 187.203 115.534C186.803 115.534 186.419 115.602 186.051 115.738C185.683 115.866 185.367 116.046 185.103 116.278L184.719 115.642C185.039 115.37 185.423 115.162 185.871 115.018C186.319 114.866 186.791 114.79 187.287 114.79ZM186.987 120.538C187.467 120.538 187.879 120.43 188.223 120.214C188.567 119.99 188.823 119.67 188.991 119.254V118.222H187.011C185.931 118.222 185.391 118.598 185.391 119.35C185.391 119.718 185.531 120.01 185.811 120.226C186.091 120.434 186.483 120.538 186.987 120.538ZM197.94 112.246V121.15H197.124V119.902C196.868 120.326 196.528 120.65 196.104 120.874C195.688 121.098 195.216 121.21 194.688 121.21C194.096 121.21 193.56 121.074 193.08 120.802C192.6 120.53 192.224 120.15 191.952 119.662C191.68 119.174 191.544 118.618 191.544 117.994C191.544 117.37 191.68 116.814 191.952 116.326C192.224 115.838 192.6 115.462 193.08 115.198C193.56 114.926 194.096 114.79 194.688 114.79C195.2 114.79 195.66 114.898 196.068 115.114C196.484 115.322 196.824 115.63 197.088 116.038V112.246H197.94ZM194.76 120.454C195.2 120.454 195.596 120.354 195.948 120.154C196.308 119.946 196.588 119.654 196.788 119.278C196.996 118.902 197.1 118.474 197.1 117.994C197.1 117.514 196.996 117.086 196.788 116.71C196.588 116.334 196.308 116.046 195.948 115.846C195.596 115.638 195.2 115.534 194.76 115.534C194.312 115.534 193.908 115.638 193.548 115.846C193.196 116.046 192.916 116.334 192.708 116.71C192.508 117.086 192.408 117.514 192.408 117.994C192.408 118.474 192.508 118.902 192.708 119.278C192.916 119.654 193.196 119.946 193.548 120.154C193.908 120.354 194.312 120.454 194.76 120.454ZM201.129 116.074C201.329 115.65 201.625 115.33 202.017 115.114C202.417 114.898 202.909 114.79 203.493 114.79V115.618L203.289 115.606C202.625 115.606 202.105 115.81 201.729 116.218C201.353 116.626 201.165 117.198 201.165 117.934V121.15H200.313V114.838H201.129V116.074ZM205.036 112.246H205.888V121.15H205.036V112.246ZM208.258 114.838H209.11V121.15H208.258V114.838ZM208.69 113.458C208.514 113.458 208.366 113.398 208.246 113.278C208.126 113.158 208.066 113.014 208.066 112.846C208.066 112.686 208.126 112.546 208.246 112.426C208.366 112.306 208.514 112.246 208.69 112.246C208.866 112.246 209.014 112.306 209.134 112.426C209.254 112.538 209.314 112.674 209.314 112.834C209.314 113.01 209.254 113.158 209.134 113.278C209.014 113.398 208.866 113.458 208.69 113.458ZM211.349 112.75H212.357L212.177 118.63H211.517L211.349 112.75ZM211.853 121.21C211.677 121.21 211.525 121.15 211.397 121.03C211.277 120.902 211.217 120.754 211.217 120.586C211.217 120.41 211.277 120.266 211.397 120.154C211.517 120.034 211.669 119.974 211.853 119.974C212.029 119.974 212.177 120.034 212.297 120.154C212.417 120.266 212.477 120.41 212.477 120.586C212.477 120.754 212.417 120.902 212.297 121.03C212.177 121.15 212.029 121.21 211.853 121.21Z" fill="#636C79"/>
<defs>
<linearGradient id="paint0_linear_16_711" x1="94.7226" y1="-24.3542" x2="171.402" y2="-22.2761" gradientUnits="userSpaceOnUse">
<stop stop-color="#1CC34B"/>
<stop offset="1" stop-color="#0057FF"/>
</linearGradient>
<linearGradient id="paint1_linear_16_711" x1="123.911" y1="2.66138" x2="131.245" y2="2.93739" gradientUnits="userSpaceOnUse">
<stop stop-color="#1CC34B"/>
<stop offset="1" stop-color="#0057FF"/>
</linearGradient>
<linearGradient id="paint2_linear_16_711" x1="111.592" y1="35.9096" x2="124.977" y2="37.0097" gradientUnits="userSpaceOnUse">
<stop stop-color="#1CC34B"/>
<stop offset="1" stop-color="#0057FF"/>
</linearGradient>
<linearGradient id="paint3_linear_16_711" x1="131.081" y1="35.9096" x2="144.467" y2="37.0097" gradientUnits="userSpaceOnUse">
<stop stop-color="#1CC34B"/>
<stop offset="1" stop-color="#0057FF"/>
</linearGradient>
</defs>
</svg>
