<svg width="60" height="80" viewBox="0 0 48 48" fill="none" xmlns="http://www.w3.org/2000/svg">
<g clip-path="url(#clip0_5_730)">
<path fill-rule="evenodd" clip-rule="evenodd" d="M31.6082 18.6442C35.7049 18.6442 39.0564 21.996 39.0564 26.0926C39.0564 30.1892 35.7047 33.5409 31.6082 33.5409H18.266C18.7921 34.7094 18.6856 35.5483 18.6731 35.8206C18.6062 37.282 17.476 38.4808 16.0129 38.4808H6.82706C5.3639 38.4808 4.16681 37.2837 4.16681 35.8206C4.16681 34.3573 5.3639 33.1602 6.82706 33.1602H11.8441L10.3567 30.5841C10.0257 30.0109 9.8684 29.4467 9.855 28.7849L9.83025 27.5642V18.6442H14.2187H31.6082Z" fill="#EFC7A4"/>
<path fill-rule="evenodd" clip-rule="evenodd" d="M13.1604 18.6442H14.2188H16.7146H29.929V21.1639H17.7226C17.2627 21.1639 16.8774 21.4882 16.799 21.9414C16.1904 25.4562 13.3889 28.2199 9.85482 28.7712L9.83035 27.5642V18.6442H13.1604Z" fill="#D5A889"/>
<path fill-rule="evenodd" clip-rule="evenodd" d="M19.7775 33.5408H18.266L18.2673 33.5438L16.7082 30.8436C16.527 30.5308 16.6338 30.1302 16.9466 29.949C17.2595 29.7678 17.6601 29.8745 17.8413 30.1874L19.7775 33.5408Z" fill="#D5A889"/>
<path fill-rule="evenodd" clip-rule="evenodd" d="M39.0564 26.0925C39.0564 21.9959 35.7048 18.6441 31.6082 18.6441H28.1544V33.5409H31.6082C35.7047 33.5409 39.0564 30.1892 39.0564 26.0925Z" fill="#F7F7F8"/>
<path fill-rule="evenodd" clip-rule="evenodd" d="M33.7387 27.4131C31.5434 27.4131 29.8556 29.1009 29.8556 31.1703V32.567C29.8556 36.1604 31.5986 38.4808 35.7695 38.4808H43.5524C45.1733 38.4808 46.5001 37.1543 46.5001 35.5331C46.5001 33.9119 45.1736 32.5854 43.5524 32.5854H38.3633C37.9549 32.5854 37.6219 32.2523 37.6219 31.844V31.1703C37.6219 29.1009 35.9341 27.4131 33.7387 27.4131Z" fill="#EFC7A4"/>
<path d="M13.5398 25.491C16.2946 22.7362 16.2946 18.2699 13.5398 15.5151C10.785 12.7604 6.3187 12.7604 3.56395 15.5151C0.809191 18.2699 0.809191 22.7362 3.56395 25.491C6.3187 28.2457 10.785 28.2457 13.5398 25.491Z" fill="#EFC7A4"/>
<path fill-rule="evenodd" clip-rule="evenodd" d="M38.2293 20.7738C40.1687 19.8237 42.1263 18.911 44.0779 17.9864L41.3234 11.3861L37.2721 13.3597C36.6864 13.645 36.088 13.6964 35.4621 13.5152L31.1639 12.2707C29.8018 11.8763 28.1155 12.601 26.8482 13.0904L18.7855 16.2042C16.6624 17.0242 16.1512 21.2851 21.1653 19.813L26.9176 18.1244C27.085 18.7306 27.5601 19.2366 28.2084 19.4097L32.1055 20.4508C34.7618 22.3316 36.1132 21.8106 38.2293 20.7738Z" fill="#EFC7A4"/>
<path fill-rule="evenodd" clip-rule="evenodd" d="M26.9137 17.1712L35.6262 19.4988C35.8858 18.5271 35.3032 17.5197 34.3315 17.2601L29.1524 15.8765C28.1807 15.6169 27.1733 16.1995 26.9137 17.1712Z" fill="#D5A889"/>
<path fill-rule="evenodd" clip-rule="evenodd" d="M39.3709 10.4309L41.4416 9.58463C41.8909 9.40107 42.4071 9.61744 42.5911 10.0665C43.7414 12.8732 44.8918 15.6799 46.0421 18.4867C46.2281 18.9405 46.0139 19.4517 45.5598 19.6373L43.489 20.4835C43.0398 20.6671 42.5236 20.4507 42.3396 20.0017C41.1893 17.195 40.0389 14.3882 38.8885 11.5815C38.7025 11.1277 38.9169 10.6164 39.3709 10.4309Z" fill="#636C79"/>
</g>
<defs>
<clipPath id="clip0_5_730">
<rect width="48" height="48" fill="white"/>
</clipPath>
</defs>
</svg>
