<svg width="60" height="80" viewBox="0 0 48 48" fill="none" xmlns="http://www.w3.org/2000/svg">
<g clip-path="url(#clip0_5_700)">
<path d="M25.6725 8.50501C25.1475 8.50501 24.7125 8.93251 24.7125 9.45751V6.80251C20.805 7.36501 18.3375 3.82501 18.3375 3.82501C17.7 5.73751 15.7875 6.80251 15.7875 6.80251V9.45751C15.7875 8.93251 15.3525 8.50501 14.8275 8.50501C14.3025 8.50501 13.875 8.93251 13.875 9.45751V11.7C13.875 12.225 14.3025 12.6525 14.8275 12.6525C15.3525 12.6525 15.7875 12.225 15.7875 11.7V11.52C15.7875 12.765 16.29 13.8975 17.1 14.7225C17.5875 15.2175 18.1875 15.6 18.855 15.825C18.8175 16.3425 18.7275 16.8675 18.5625 17.355C18.3075 18.15 17.64 18.6525 16.8 18.9825C17.235 19.305 17.8875 20.385 18.8775 20.6325C18.8775 20.6325 19.6275 24.3825 20.3775 25.8825C21.1275 24.3825 21.8775 20.6325 21.8775 20.6325C22.8675 20.385 23.52 19.305 23.955 18.9825C23.115 18.6525 22.4475 18.15 22.1925 17.355C22.02 16.8375 21.9225 16.2825 21.8925 15.735C22.4625 15.5025 22.9725 15.1575 23.4 14.7225C24.21 13.8975 24.7125 12.765 24.7125 11.52V11.7C24.7125 12.225 25.1475 12.6525 25.6725 12.6525C26.1975 12.6525 26.625 12.225 26.625 11.7V9.45751C26.625 8.93251 26.1975 8.50501 25.6725 8.50501Z" fill="#FFD5C2"/>
<path d="M30.645 28.62C30.2625 26.9625 29.4975 23.655 29.025 21.6225C28.785 20.565 27.915 19.77 26.8425 19.6275C25.875 19.5 24.825 19.335 23.955 18.9825C23.52 19.305 22.8675 19.635 21.8775 19.8825C21.8775 19.8825 21.1275 23.6325 20.3775 25.1325C19.6275 23.6325 18.8775 19.8825 18.8775 19.8825C17.8875 19.635 17.235 19.305 16.8 18.9825C15.93 19.335 14.88 19.5 13.9125 19.6275C12.84 19.77 11.97 20.565 11.73 21.6225C11.2575 23.655 10.4925 26.9625 10.11 28.62C9.9975 29.115 10.41 29.58 10.92 29.5275L12.915 29.325L13.425 37.305V37.3125L13.5555 39.2775C13.9605 39.3075 15.1125 39.7125 15.1125 39.7125C15.57 39.6225 16.0425 39.5325 16.5225 39.45C17.7675 39.2175 19.0575 38.985 20.2125 38.7525C20.2425 38.745 20.265 38.745 20.2875 38.7375C20.3325 38.73 20.37 38.7225 20.4075 38.715C21.6225 38.46 22.8675 38.2125 24.0975 38.3325C24.18 38.3325 24.2625 38.3475 24.345 38.355C25.2525 38.4675 26.1075 38.79 26.9775 39.075L27 38.25L27.84 29.325L29.835 29.5275C30.345 29.58 30.7575 29.115 30.645 28.62Z" fill="#6871D8"/>
<path d="M30.75 43.5V47.25H14.25C14.25 47.25 14.505 44.475 14.5875 43.5H28.125H30.75Z" fill="#6871D8"/>
<path d="M44.9723 41.6107C44.1323 40.9957 43.2998 40.3882 42.4598 39.7732C41.8373 39.3157 41.1848 38.8282 40.8248 38.1382C40.5173 37.5382 40.4573 36.8332 40.1648 36.2257C39.9923 35.8732 39.7373 35.5507 39.3923 35.3782C39.0473 35.1982 38.6048 35.1907 38.2898 35.4232C38.1323 35.5357 38.0273 35.6782 37.9523 35.8507C35.7998 35.6407 33.3375 37.095 31.95 38.7525C31.005 39.66 29.385 38.9475 28.11 38.655C27.7275 38.565 27.3525 38.445 26.9775 38.325C26.1075 38.04 25.2525 37.7175 24.345 37.605C24.2625 37.5975 24.18 37.5825 24.0975 37.5825C22.8675 37.4625 21.6225 37.71 20.4075 37.965C20.37 37.9725 20.3325 37.98 20.2875 37.9875C20.265 37.995 20.2425 37.995 20.2125 38.0025C19.0575 38.235 17.7675 38.4675 16.5225 38.7C16.0425 38.7825 15.57 38.8725 15.1125 38.9625H15.105C14.7083 39.5692 14.6325 40.0972 14.5875 40.5C14.481 41.4502 14.361 42.6945 15.3375 44.25H30.75L36.495 42.8175C36.5355 43.0912 36.945 43.5 37.185 43.5H45.48C45.525 43.5 45.5775 43.5 45.6225 43.5075L45.63 42.5175C45.5393 42.213 45.2198 41.7982 44.9723 41.6107Z" fill="#FFD5C2"/>
<path d="M24.7575 2.6175C23.61 1.4625 22.0125 0.75 20.25 0.75C18.345 0.75 16.635 1.5825 15.465 2.91C15.06 2.595 14.625 2.3475 14.1225 2.325C13.2225 2.295 12.4875 3.0075 11.91 3.705C11.2875 4.4475 10.6725 5.3775 10.92 6.3075C11.0925 6.96 11.685 7.4625 12.345 7.5975C12.8625 7.7025 13.4025 7.605 13.875 7.38V10.2075C13.875 9.6825 14.3025 9.255 14.8275 9.255C15.3525 9.255 15.7875 9.6825 15.7875 10.2075V7.96275C15.7875 7.719 15.903 7.48875 16.104 7.35075C16.5352 7.05375 17.319 6.43575 17.8815 5.53425C18.1372 5.124 18.7035 5.04825 19.0432 5.3925C19.9417 6.3015 21.6555 7.64025 23.9445 7.6125C24.3652 7.60725 24.7125 7.93725 24.7125 8.358V10.2075C24.7125 9.6825 25.1475 9.255 25.6725 9.255C26.1975 9.255 26.625 9.6825 26.625 10.2075V7.125C26.625 5.37 25.9125 3.7725 24.7575 2.6175Z" fill="#212647"/>
<path d="M17.4165 9.87901C17.295 9.87901 17.1765 9.82051 17.1038 9.71176C16.989 9.53926 17.0355 9.30601 17.208 9.19201C17.2515 9.16351 18.2783 8.49526 19.3245 9.19201C19.497 9.30676 19.5435 9.53926 19.4288 9.71176C19.314 9.88351 19.0807 9.93001 18.909 9.81601C18.2737 9.39151 17.6303 9.81151 17.625 9.81601C17.5598 9.85876 17.4878 9.87901 17.4165 9.87901Z" fill="#212647"/>
<path d="M20.2927 13.743C19.5495 13.743 18.9915 13.4858 18.9562 13.4693C18.7695 13.3808 18.69 13.1588 18.777 12.9713C18.8647 12.7838 19.0875 12.7043 19.275 12.7898C19.2847 12.7943 20.271 13.239 21.2235 12.7905C21.4102 12.7013 21.6337 12.7823 21.723 12.9698C21.8115 13.1573 21.7312 13.38 21.5437 13.4693C21.1087 13.674 20.676 13.743 20.2927 13.743Z" fill="#FCAD95"/>
<path d="M23.0835 9.879C23.0123 9.879 22.9403 9.85875 22.8758 9.816C22.2518 9.399 21.6158 9.80025 21.5895 9.8175C21.4178 9.9285 21.1845 9.88125 21.0713 9.70875C20.958 9.53625 21.0045 9.306 21.1755 9.192C21.219 9.16275 22.2465 8.49525 23.292 9.192C23.4638 9.30675 23.511 9.53925 23.3963 9.71175C23.3243 9.8205 23.205 9.879 23.0835 9.879Z" fill="#212647"/>
<path d="M29.9947 42.5145C29.961 42.9773 29.7592 43.395 29.4525 43.7025C29.115 44.04 28.6425 44.25 28.125 44.25H27.9375C27.9375 44.145 28.02 44.0625 28.125 44.0625C28.575 44.0625 29.0025 43.89 29.3175 43.5675C29.6977 43.1955 29.8695 42.6675 29.7952 42.1305C29.6782 41.2845 28.8945 40.6875 28.0402 40.6875H15.3525C15.3525 40.6275 15.345 40.56 15.3375 40.5H27.9787C29.0872 40.5 30.0765 41.4098 29.9947 42.5145Z" fill="#FCAD95"/>
<path d="M15.3375 44.25C15.255 45.225 15.1275 46.2225 14.9925 47.25H0.75C0.75 47.25 0.8475 41.7075 0.8175 38.895C0.81 38.2125 1.35 37.6425 2.04 37.62L11.1225 37.2825C11.8875 37.26 12.66 37.2525 13.425 37.3125H13.47C13.875 37.3425 14.28 37.425 14.5725 37.695C14.88 37.98 14.9925 38.415 15.0825 38.8275C15.09 38.8725 15.105 38.9175 15.105 38.9625C15.2175 39.48 15.2925 39.99 15.3375 40.5C15.4725 41.76 15.4425 42.9975 15.3375 44.25Z" fill="#FF9700"/>
<path d="M21.9075 15.93C21.3975 16.1325 20.835 16.245 20.25 16.245C19.755 16.245 19.275 16.1625 18.8325 16.02C18.8475 15.9525 18.8475 15.8925 18.855 15.825C19.29 15.975 19.7625 16.0575 20.25 16.0575C20.835 16.0575 21.3825 15.945 21.8925 15.735C21.8925 15.8025 21.9 15.8625 21.9075 15.93Z" fill="#FCAD95"/>
<path d="M16.6268 28.8653L17.2613 28.7963L16.5315 25.1475C16.521 25.0973 16.554 25.0478 16.605 25.0373C16.6583 25.029 16.7055 25.0605 16.7153 25.1108L17.4653 28.8608C17.4705 28.887 17.4645 28.9133 17.4488 28.935C17.433 28.9568 17.409 28.9703 17.3828 28.9725L16.6898 29.04L16.6268 28.8653Z" fill="#212647"/>
<path d="M24.0668 29.0303L23.3648 28.9733C23.3385 28.971 23.3145 28.9568 23.2988 28.9358C23.283 28.9148 23.277 28.8878 23.2823 28.8615L24.0323 25.1115C24.042 25.0613 24.0893 25.029 24.1425 25.038C24.1935 25.0485 24.2265 25.098 24.216 25.1483L23.4863 28.797L24.1433 28.854L24.0668 29.0303Z" fill="#212647"/>
<path d="M27.66 29.31L24.0975 28.9575L21.45 35.625C20.9625 35.6475 20.5425 36.015 20.46 36.51L20.2875 37.9875C20.3325 37.98 20.37 37.9725 20.4075 37.965C21.6225 37.71 22.8675 37.4625 24.0975 37.5825L24.1725 37.0575C24.2025 36.87 24.18 36.69 24.1125 36.5325L27.66 29.31Z" fill="#FFD5C2"/>
<path d="M19.275 36.195V36.1875L16.6575 28.9575L13.095 29.31L16.545 36.8475H16.5525C16.395 37.0575 16.3275 37.3275 16.365 37.605L16.5225 38.7C17.7675 38.4675 19.0575 38.235 20.2125 38.0025L20.07 37.0575C20.01 36.615 19.68 36.285 19.275 36.195Z" fill="#FFD5C2"/>
<path d="M20.1825 37.8225L20.2125 38.0025C19.0575 38.235 17.7675 38.4675 16.5225 38.7L16.4925 38.505L17.415 38.34C18.3675 38.1675 19.3125 37.9875 20.1825 37.8225Z" fill="#FCAD95"/>
<path d="M24.12 37.425L24.0975 37.5825C22.8675 37.4625 21.6225 37.71 20.4075 37.965C20.37 37.9725 20.3325 37.98 20.2875 37.9875L20.31 37.8C20.3325 37.7925 20.3475 37.7925 20.37 37.785C21.72 37.5 22.845 37.2975 24.015 37.38C24.0525 37.38 24.09 37.4025 24.12 37.425Z" fill="#FCAD95"/>
<path d="M43.9575 33.0375C43.485 32.4525 42.9375 31.8975 42.3 31.5075C42.48 31.29 42.6225 31.0425 42.7275 30.78C42.945 30.225 42.9975 29.6175 43.0275 29.0175C43.065 28.3575 43.0425 27.645 42.6225 27.135C42.1575 26.565 41.325 26.445 40.5825 26.49C39.765 26.5425 38.9325 26.7525 38.2575 27.225C37.5825 27.6975 37.0725 28.455 37.0275 29.2725C36.9975 29.85 37.2225 30.45 37.6275 30.855C37.305 30.9075 36.99 31.005 36.7125 31.1775C36.2025 31.5 35.88 32.0475 35.5725 32.565C34.4025 34.5675 33.225 36.57 32.055 38.565L31.95 38.7525C33.3375 37.095 35.6175 36.18 37.77 36.39C37.845 36.2175 37.95 36.075 38.1075 35.9625C38.4225 35.73 38.865 35.7375 39.21 35.9175C39.555 36.09 39.81 36.4125 39.9825 36.765C40.275 37.3725 40.335 38.0775 40.6425 38.6775C41.0025 39.3675 41.655 39.855 42.2775 40.3125C43.1175 40.9275 43.95 41.535 44.79 42.15C45.0375 42.3375 45.3225 42.525 45.63 42.5175C45.9525 42.5025 46.23 42.255 46.3725 41.97C46.515 41.6775 46.545 41.3475 46.56 41.025C46.6875 38.1675 45.7425 35.2725 43.9575 33.0375Z" fill="#212647"/>
<path d="M36.66 38.7788C36.6128 38.7788 36.5723 38.7435 36.567 38.6955C36.561 38.6445 36.5985 38.598 36.6495 38.592C37.125 38.5388 37.3718 37.9598 37.4445 37.4348L37.4693 37.2653C37.542 36.762 37.6238 36.192 38.0535 35.886C38.3805 35.6453 38.8523 35.6243 39.2535 35.8343C39.5805 35.9978 39.8625 36.3053 40.0665 36.7238C40.089 36.7703 40.0695 36.8265 40.023 36.849C39.9765 36.8715 39.9203 36.852 39.8978 36.8055C39.768 36.54 39.5355 36.1845 39.1673 36.0008C38.832 35.826 38.4293 35.8418 38.1623 36.0375C37.797 36.2978 37.7243 36.8033 37.6538 37.2915L37.629 37.461C37.5473 38.0543 37.2518 38.7128 36.669 38.7773C36.6668 38.7788 36.663 38.7788 36.66 38.7788Z" fill="#FCAD95"/>
<path d="M47.25 44.52V47.25H33.75V46.185C33.75 44.5275 34.9275 43.14 36.495 42.8175C36.72 42.7725 36.945 42.75 37.185 42.75H45.48C45.525 42.75 45.5775 42.75 45.6225 42.7575C46.53 42.8325 47.25 43.59 47.25 44.52Z" fill="#6871D8"/>
</g>
<defs>
<clipPath id="clip0_5_700">
<rect width="48" height="48" fill="white"/>
</clipPath>
</defs>
</svg>
