<svg width="60" height="80" viewBox="0 0 48 48" fill="none" xmlns="http://www.w3.org/2000/svg">
<path fill-rule="evenodd" clip-rule="evenodd" d="M23.7864 40.4457C31.9494 40.4457 38.5669 33.8283 38.5669 25.6654C38.5669 17.5491 32.0246 10.9618 23.926 10.8867V14.6171C29.9644 14.692 34.8366 19.6093 34.8366 25.6654C34.8366 31.7681 29.8893 36.7154 23.7865 36.7154C20.1653 36.7154 16.9509 34.9734 14.9356 32.2818H10.5672C12.9949 37.1226 18.0023 40.4457 23.7865 40.4457H23.7864Z" fill="#CADBFD"/>
<path fill-rule="evenodd" clip-rule="evenodd" d="M36.4351 25.6654C36.4351 18.7308 30.8454 13.1027 23.926 13.0386V14.6171C29.9643 14.692 34.8365 19.6093 34.8365 25.6654C34.8365 31.7214 29.9643 36.6388 23.926 36.7136C20.3622 36.6695 17.2049 34.9381 15.2155 32.2818H13.2881C15.492 35.8568 19.4276 38.2505 23.926 38.2922C30.8454 38.2281 36.4351 32.5999 36.4351 25.6654Z" fill="#ABC7F0"/>
<path fill-rule="evenodd" clip-rule="evenodd" d="M31.9218 43.9777L27.2042 35.2082C26.3988 33.7109 24.9352 33.0592 23.522 33.5687C22.1089 34.0782 21.1766 35.5936 21.1766 37.3813V44.7154L31.9217 43.9778L31.9218 43.9777Z" fill="#4E5F7F"/>
<path fill-rule="evenodd" clip-rule="evenodd" d="M31.9218 43.9777L27.2042 35.2082C26.4894 33.8794 25.2562 33.2167 24 33.4405V44.5216L31.9217 43.9778L31.9218 43.9777Z" fill="#3D4665"/>
<path d="M40.8222 42.7314H7.17788C6.67756 42.7314 6.27197 43.1369 6.27197 43.6373V46.0629C6.27197 46.5632 6.67756 46.9688 7.17788 46.9688H40.8222C41.3225 46.9688 41.7281 46.5632 41.7281 46.0629V43.6373C41.7281 43.1369 41.3225 42.7314 40.8222 42.7314Z" fill="#3D4665"/>
<path fill-rule="evenodd" clip-rule="evenodd" d="M24 46.9688H40.8221C41.3204 46.9688 41.728 46.5611 41.728 46.0629V43.6373C41.728 43.139 41.3204 42.7314 40.8221 42.7314H24V46.9688Z" fill="#262B3D"/>
<path fill-rule="evenodd" clip-rule="evenodd" d="M24.6093 35.9178C25.3877 35.9178 26.0186 36.5488 26.0186 37.3271C26.0186 38.1054 25.3877 38.7366 24.6093 38.7366C23.8309 38.7366 23.1998 38.1055 23.1998 37.3271C23.1998 36.5487 23.8309 35.9178 24.6093 35.9178Z" fill="#65E4FD"/>
<path d="M21.3408 12.157L27.1032 2.17655L30.1151 3.91552L24.3527 13.896L21.3408 12.157Z" fill="#ABC7F0"/>
<path d="M21.3408 12.1569L27.1031 2.17646L28.6091 3.04595L22.8467 13.0264L21.3408 12.1569Z" fill="#CADBFD"/>
<path d="M26.4599 2.14992L26.969 1.26806C27.0995 1.04212 27.3888 0.964522 27.6148 1.09502L30.7962 2.93182C31.0221 3.06227 31.0997 3.35169 30.9692 3.57764L30.4601 4.45941C30.3296 4.68536 30.0402 4.76291 29.8143 4.63245L26.6329 2.79566C26.407 2.6652 26.3294 2.37586 26.4599 2.14992Z" fill="#CADBFD"/>
<path fill-rule="evenodd" clip-rule="evenodd" d="M26.6329 2.79489L28.2235 3.71326L29.2055 2.01254L27.6147 1.09417C27.3895 0.964137 27.0989 1.04204 26.969 1.26723L26.4598 2.14904C26.3298 2.37423 26.4077 2.66495 26.6329 2.79489Z" fill="#E4F0FD"/>
<path fill-rule="evenodd" clip-rule="evenodd" d="M22.9751 6.91002L13.8137 22.7781L18.918 25.725L28.0794 9.85696C28.4117 9.28162 28.2127 8.53902 27.6373 8.20677L24.6253 6.4678C24.0499 6.13565 23.3074 6.33459 22.9752 6.90993L22.9751 6.91002Z" fill="#3D4665"/>
<path fill-rule="evenodd" clip-rule="evenodd" d="M22.9751 6.91002L13.8137 22.7781L16.3658 24.2515L26.1312 7.33733L24.6252 6.4679C24.0498 6.13574 23.3073 6.33468 22.9751 6.91002Z" fill="#4E5F7F"/>
<path d="M12.6478 22.0271L11.7965 23.5017C11.6706 23.7197 11.7453 23.9985 11.9634 24.1244L18.6764 28.0003C18.8945 28.1262 19.1733 28.0515 19.2992 27.8335L20.1505 26.359C20.2764 26.1409 20.2017 25.8621 19.9837 25.7362L13.2706 21.8603C13.0526 21.7344 12.7737 21.8091 12.6478 22.0271Z" fill="#ABC7F0"/>
<path fill-rule="evenodd" clip-rule="evenodd" d="M16.6278 23.7979L13.2712 21.8599C13.054 21.7345 12.7737 21.8096 12.6484 22.0267L11.797 23.5012C11.6717 23.7184 11.7468 23.9987 11.9639 24.124L15.3205 26.0619L16.6278 23.7977V23.7979Z" fill="#CADBFD"/>
<path d="M7.35151 31.3087H19.8836C20.4795 31.3087 20.9632 31.7924 20.9632 32.3882V33.1937C20.9632 33.7896 20.4794 34.2733 19.8835 34.2733H7.35151C6.75563 34.2733 6.27188 33.7896 6.27188 33.1937V32.3882C6.27188 31.7923 6.75572 31.3087 7.35151 31.3087Z" fill="#65E4FD"/>
<path fill-rule="evenodd" clip-rule="evenodd" d="M14.8815 34.2733H19.8836C20.4774 34.2733 20.9632 33.7875 20.9632 33.1938V32.3883C20.9632 31.7945 20.4773 31.3087 19.8836 31.3087H12.8202C13.3644 32.3956 14.0607 33.3932 14.8815 34.2733Z" fill="#57C6FD"/>
</svg>
