<svg width="60" height="80" viewBox="0 0 48 48" fill="none" xmlns="http://www.w3.org/2000/svg">
<g clip-path="url(#clip0_5_603)">
<path d="M36.188 28.1374C29.9725 28.1374 24.0213 28.1374 18.9461 28.1374V48H38.0407C39.3741 48 40.4549 46.9192 40.4549 45.5859V32.4043C40.4549 30.0477 38.5446 28.1374 36.188 28.1374Z" fill="#F58A97"/>
<path d="M37.3467 28.1374C36.5643 28.1374 35.9677 28.1374 35.2222 28.1374C37.5788 28.1374 39.4892 30.0477 39.4892 32.4043V45.5859C39.4892 46.9192 38.4083 48 37.075 48H39.1995C40.5328 48 41.6136 46.9192 41.6136 45.5859V32.4043C41.6136 30.0477 39.7033 28.1374 37.3467 28.1374Z" fill="#F07281"/>
<path d="M17.7901 47.9347V46.3101H22.5952C25.0286 44.0684 25.6772 40.3665 23.9538 37.3814L17.8169 26.752C16.012 23.6258 11.9286 22.1486 8.9355 23.8766C5.47706 25.8732 4.29215 30.2955 6.28884 33.754L12.4257 44.3834C13.5302 46.2964 15.4688 47.6495 17.7901 47.9347Z" fill="#8795DE"/>
<path d="M31.3368 19.2799H24.6254V26.7575L24.0328 27.5048V28.8486C24.0328 31.0431 25.8115 32.8247 28.0089 32.8247C30.2048 32.8247 31.9851 31.0446 31.9851 28.8486V27.3999L31.3369 26.7575V19.2799H31.3368Z" fill="#FFA78F"/>
<path d="M24.0328 27.5048C26.579 28.6184 29.5224 28.5563 31.985 27.3999V19.2799H24.0328V27.5048Z" fill="#F89580"/>
<path d="M16.8283 13.2124H27.8302V0.00646973C21.7575 0.00646973 16.8283 4.92872 16.8283 11.0084V13.2124Z" fill="#AA6A51"/>
<path d="M37.9111 24.972C39.1234 24.6324 39.7071 23.9509 40.2683 23.3896C41.9404 21.7176 41.9404 19.0066 40.2683 17.3345C39.7299 16.7962 39.0838 16.4322 38.3995 16.2405H37.2407C36.0126 16.6014 35.4994 17.2071 34.8835 17.8229C32.5615 20.1449 33.6238 24.0955 36.7523 24.972H37.9111Z" fill="#AA6A51"/>
<path d="M41.4271 17.3345C40.2933 16.2007 38.6821 15.8367 37.2408 16.2405C37.9251 16.4322 38.5713 16.7962 39.1095 17.3345C40.7816 19.0065 40.7816 21.7175 39.1095 23.3896C38.5515 23.9476 37.9675 24.6315 36.7523 24.972C38.1936 25.3758 39.8049 25.0119 40.9386 23.878L41.4271 23.3896C43.0991 21.7176 43.0991 19.0066 41.4271 17.3345Z" fill="#935B44"/>
<path d="M22.9628 18.7588H18.2986C16.5053 18.7588 15.0517 17.3052 15.0517 15.5119V15.4919C15.0517 13.6987 16.5053 12.245 18.2986 12.245H22.9628V18.7588Z" fill="#FFB09E"/>
<path d="M32.8504 12.2451H37.5146C39.3079 12.2451 40.7616 13.6988 40.7616 15.492V15.512C40.7616 17.3052 39.3079 18.7589 37.5146 18.7589H32.8504V12.2451Z" fill="#F89580"/>
<path d="M16.0617 35.58C13.9108 36.8218 11.1605 36.0848 9.91856 33.9339L8.84371 32.0723C7.6019 29.9213 8.33887 27.171 10.4898 25.9291C12.6407 24.6873 15.391 25.4243 16.6328 27.5752L17.7077 29.4368C18.9496 31.5878 18.2126 34.3382 16.0617 35.58Z" fill="#FFDFCF"/>
<path d="M15.98 31.4597C15.8157 31.1753 15.9132 30.8116 16.1977 30.6474L17.0267 30.1687C17.3109 30.0044 17.6748 30.1018 17.839 30.3864C18.0033 30.6708 17.9058 31.0345 17.6213 31.1987L16.7923 31.6774C16.5083 31.8414 16.1445 31.7444 15.98 31.4597Z" fill="#FE8F83"/>
<path d="M10.7948 34.4533C10.6306 34.1689 10.7281 33.8052 11.0125 33.641L11.8416 33.1623C12.1259 32.998 12.4897 33.0954 12.6539 33.38C12.8182 33.6644 12.7207 34.0281 12.4362 34.1923L11.6072 34.671C11.3232 34.835 10.9594 34.738 10.7948 34.4533Z" fill="#FE8F83"/>
<path d="M24.9498 37.1527L18.8129 26.5232C17.0236 23.4241 13.287 22.1526 10.0412 23.3582C12.86 22.9799 15.7576 24.2937 17.2678 26.9095L23.4047 37.5389C25.4014 40.9974 24.2165 45.4196 20.758 47.4163C20.3988 47.6238 20.0287 47.7949 19.6523 47.9347C20.5604 47.8128 21.4604 47.5167 22.3031 47.0301C25.7616 45.0334 26.9465 40.6111 24.9498 37.1527Z" fill="#4F66D0"/>
<path d="M22.3762 8.70751L21.2295 6.91904C19.4233 8.65838 18.2982 11.0998 18.2982 13.8053V17.195C18.2982 22.0951 21.9841 26.1337 26.7344 26.6911H28.0864C32.8367 26.1336 36.5226 22.095 36.5226 17.195C36.5226 16.3027 36.5226 13.5289 36.5226 12.6083H29.5114C26.6076 12.6083 23.9262 11.1248 22.3762 8.70751Z" fill="#FFCEBF"/>
<path d="M27.9066 22.8009C26.3835 22.8009 25.1443 21.5617 25.1443 20.0386C25.1443 19.6386 25.4685 19.3144 25.8685 19.3144C26.2686 19.3144 26.5927 19.6387 26.5927 20.0386C26.5927 20.763 27.1821 21.3523 27.9066 21.3523C28.631 21.3523 29.2203 20.763 29.2203 20.0386C29.2203 19.6386 29.5445 19.3144 29.9445 19.3144C31.4413 19.3144 30.5529 22.8009 27.9066 22.8009Z" fill="#FFA799"/>
<path d="M32.5868 17.9325C32.1868 17.9325 31.8626 17.6082 31.8626 17.2083V15.4411C31.8626 15.0411 32.1868 14.7169 32.5868 14.7169H33.092C33.492 14.7169 33.8162 15.0412 33.8162 15.4411C33.8162 15.7647 33.604 16.0388 33.3111 16.1316V17.2083C33.3112 17.6082 32.987 17.9325 32.5868 17.9325Z" fill="#5A5A5A"/>
<path d="M23.2263 17.9325C22.8262 17.9325 22.5021 17.6082 22.5021 17.2083V16.1316C22.2092 16.0387 21.9969 15.7647 21.9969 15.4411C21.9969 15.0411 22.3211 14.7169 22.7212 14.7169H23.2263C23.6263 14.7169 23.9505 15.0412 23.9505 15.4411V17.2083C23.9505 17.6082 23.6263 17.9325 23.2263 17.9325Z" fill="#5A5A5A"/>
<path d="M26.7344 4.30932C31.4847 4.86675 35.1706 8.90532 35.1706 13.8054V17.1951C35.1706 22.0952 31.4847 26.1338 26.7344 26.6912C32.5994 27.3794 37.4882 22.8283 37.4882 17.1951V13.8054C37.4882 8.14697 32.5743 3.624 26.7344 4.30932Z" fill="#FFB09E"/>
<path d="M28.784 13.2124H37.128V11.1971C35.1513 4.2094 26.3913 1.94599 21.229 6.9168C21.8821 10.4973 25.0149 13.2124 28.784 13.2124Z" fill="#FFB09E"/>
<path d="M23.2263 1.01373V5.53023C23.2263 9.77298 26.6657 13.2124 30.9084 13.2124H38.2868V11.1014C38.2868 3.37079 30.367 -2.28167 23.2263 1.01373Z" fill="#AA6A51"/>
<path d="M27.3788 0.0515757C33.0392 0.555763 37.4768 5.31001 37.4768 11.1014V13.2124H39.7944V11.1014C39.7944 4.82683 34.5207 -0.588549 27.3788 0.0515757Z" fill="#935B44"/>
<path d="M22.2834 41.6391H33.7509V48H22.2834V41.6391Z" fill="#F58A97"/>
<path d="M33.7509 43.0876H23.2491C22.849 43.0876 22.5248 42.7633 22.5248 42.3634C22.5248 41.9633 22.849 41.6392 23.2491 41.6392H33.7509C34.151 41.6392 34.4752 41.9634 34.4752 42.3634C34.4752 42.7633 34.151 43.0876 33.7509 43.0876Z" fill="#F07281"/>
<path d="M34.1968 20.0042H32.6706C32.2706 20.0042 31.9464 19.6799 31.9464 19.28C31.9464 18.8799 32.2706 18.5558 32.6706 18.5558H34.1968C34.5968 18.5558 34.921 18.88 34.921 19.28C34.921 19.6799 34.5968 20.0042 34.1968 20.0042Z" fill="#FE8F83"/>
<path d="M21.6163 20.0042H23.1425C23.5425 20.0042 23.8667 19.6799 23.8667 19.28C23.8667 18.8799 23.5425 18.5558 23.1425 18.5558H21.6163C21.2163 18.5558 20.8921 18.88 20.8921 19.28C20.8921 19.6799 21.2163 20.0042 21.6163 20.0042Z" fill="#FE8F83"/>
<path d="M11.843 32.4198C11.5927 32.4198 11.3492 32.2899 11.2151 32.0576L10.7377 31.2305C10.5376 30.8841 10.6564 30.4411 11.0028 30.2411C11.3493 30.0412 11.7921 30.1599 11.9921 30.5063L12.4696 31.3333C12.6697 31.6797 12.5509 32.1227 12.2045 32.3227C12.0904 32.3886 11.9659 32.4198 11.843 32.4198Z" fill="#5A5A5A"/>
<path d="M15.1882 30.4885C14.9379 30.4885 14.6946 30.3586 14.5604 30.1262L14.0828 29.2991C13.8828 28.9527 14.0016 28.5098 14.348 28.3098C14.6942 28.1098 15.1372 28.2284 15.3373 28.5748L15.8149 29.4019C16.0149 29.7483 15.8962 30.1913 15.5497 30.3912C15.4357 30.4572 15.3111 30.4885 15.1882 30.4885Z" fill="#5A5A5A"/>
<path d="M10.0285 35.9449L8.53275 37.6722C8.5304 37.6749 8.52609 37.6739 8.52515 37.6706L8.21015 36.5529C8.06981 36.0551 7.60996 35.6953 7.09359 35.7258C6.50596 35.7605 6.05653 36.2555 6.07406 36.8395L6.14906 39.3384C6.13265 40.0453 6.43265 40.7227 6.96721 41.1855C9.31678 43.2202 9.35606 43.321 9.91818 43.5142L11.0578 43.4078L14.0996 39.8642L14.3169 38.6088L11.2617 35.905C10.3639 35.6292 10.4936 35.67 10.3971 35.6368C10.2518 35.7334 10.1405 35.8157 10.0285 35.9449Z" fill="#FFCEBF"/>
<path d="M14.6841 37.9788L12.1587 35.7919C11.6535 35.3544 10.9413 35.3124 10.3971 35.637C10.5645 35.7369 10.3867 35.5953 13.139 37.9788C13.7694 38.5248 13.838 39.4785 13.292 40.109C10.7656 43.0263 10.6986 43.2467 9.91809 43.5142C10.8079 43.82 11.8329 43.5779 12.4866 42.8231L14.837 40.109C15.3831 39.4785 15.3146 38.5248 14.6841 37.9788Z" fill="#FFB09E"/>
<path d="M24.5962 42.3633L21.775 39.8652C21.5683 39.6821 21.2769 39.6291 21.0189 39.7274C20.7937 39.8133 20.6241 40.0032 20.5643 40.2368L20.482 40.5586L21.0837 41.6391H18.067C17.3248 41.6391 16.7231 42.2408 16.7231 42.983V46.6562C16.7231 47.3984 17.3248 48.0001 18.067 48.0001H24.5962C24.5962 47.2863 24.5962 42.9102 24.5962 42.3633Z" fill="#FFCEBF"/>
<path d="M21.8519 39.0795C21.4807 38.7332 20.8995 38.723 20.5147 39.0771C20.1769 39.3878 20.1148 39.8993 20.3381 40.3003L20.4819 40.5585C20.4928 40.5474 20.5032 40.5361 20.5147 40.5255C20.8995 40.1714 21.4806 40.1816 21.8519 40.5279L24.5962 43.0875V41.6391L21.8519 39.0795Z" fill="#FFB09E"/>
</g>
<defs>
<clipPath id="clip0_5_603">
<rect width="48" height="48" fill="white"/>
</clipPath>
</defs>
</svg>
