<svg width="60" height="80" viewBox="0 0 34 48" fill="none" xmlns="http://www.w3.org/2000/svg">
<path fill-rule="evenodd" clip-rule="evenodd" d="M26.8624 12.3196C26.6713 12.3196 26.4885 12.222 26.3839 12.0533C24.7686 9.44516 21.5411 8.1225 16.7891 8.1225C12.0373 8.1225 8.80978 9.44472 7.19447 12.0533C7.06204 12.2679 6.80271 12.3685 6.56011 12.2974C6.31794 12.2276 6.15185 12.0045 6.15384 11.7525L6.19437 6.75667C6.55169 2.10306 11.9366 0.000762939 16.7896 0.000762939C21.6426 0.000762939 27.0276 2.10262 27.3826 6.71814L27.4249 11.7524C27.4267 12.0048 27.2603 12.2273 27.0183 12.2973C26.967 12.3125 26.9143 12.3196 26.8624 12.3196Z" fill="#00B2B1"/>
<path fill-rule="evenodd" clip-rule="evenodd" d="M17.0001 34.8099C14.4986 34.8099 12.4015 33.0963 11.996 30.8201L9.37149 31.8309C9.25854 31.8751 9.13386 31.8801 9.01682 31.8473C7.25391 31.3513 4.21275 30.0994 3.65069 27.2884C3.61703 27.1209 3.66154 26.9471 3.77172 26.8162C3.8819 26.6849 4.04245 26.6137 4.2163 26.6158C4.27321 26.6158 5.47318 26.6069 6.02239 25.8283C6.44272 25.2334 6.42943 24.2947 5.98297 23.0398C5.35924 21.2858 3.5538 15.238 6.50251 11.0596C8.40472 8.36386 11.8655 6.99713 16.7889 6.99713C21.7121 6.99713 25.1729 8.36386 27.0757 11.0596C30.0243 15.2379 28.2186 21.2858 27.5947 23.0398C27.1486 24.2947 27.1353 25.233 27.5556 25.8283C28.1048 26.6065 29.3043 26.6158 29.3548 26.6158C29.5236 26.6158 29.693 26.6913 29.8005 26.8214C29.9071 26.9518 29.9603 27.123 29.9271 27.2882C29.3849 29.9995 26.4975 31.2599 24.8244 31.77C24.7048 31.8059 24.5752 31.802 24.458 31.7568L22.0037 30.811C21.5999 33.0963 19.5043 34.8099 17.0001 34.8099Z" fill="#414042"/>
<path fill-rule="evenodd" clip-rule="evenodd" d="M18.3719 4.148H15.2075C14.8971 4.148 14.645 3.89609 14.645 3.5856C14.645 3.27512 14.8971 3.0231 15.2075 3.0231H18.3719C18.6823 3.0231 18.9343 3.27512 18.9343 3.5856C18.9343 3.89609 18.6825 4.148 18.3719 4.148Z" fill="white"/>
<path fill-rule="evenodd" clip-rule="evenodd" d="M16.7895 5.73042C16.479 5.73042 16.2271 5.4784 16.2271 5.16792V2.00305C16.2271 1.69257 16.479 1.44055 16.7895 1.44055C17.1 1.44055 17.352 1.69257 17.352 2.00305V5.16792C17.352 5.47884 17.1 5.73042 16.7895 5.73042Z" fill="white"/>
<path fill-rule="evenodd" clip-rule="evenodd" d="M28.7453 47.9994H5.25498V44.7874H0.657852V36.3349C0.657852 34.0033 3.0383 33.0749 4.9507 32.3288L12.2856 29.5031C12.2992 29.4977 12.3129 29.4931 12.3268 29.4889C12.4877 31.9298 14.5181 33.8598 16.9998 33.8598C19.4844 33.8598 21.5168 31.925 21.6733 29.4798C21.6869 29.4839 21.7004 29.4885 21.7137 29.4937L29.0663 32.328C30.9714 33.0628 33.3417 33.9767 33.3417 36.3177V44.7874H28.7453L28.7453 47.9994Z" fill="#00B2B1"/>
<path fill-rule="evenodd" clip-rule="evenodd" d="M6.38013 47.9994H5.25513V43.2399C5.25513 42.9294 5.50715 42.6774 5.81763 42.6774C6.12811 42.6774 6.38013 42.9297 6.38013 43.2399V47.9994Z" fill="#46C7C6"/>
<path fill-rule="evenodd" clip-rule="evenodd" d="M0.65799 44.7873V43.6623H5.81763C6.12811 43.6623 6.38013 43.9146 6.38013 44.2248C6.38013 44.5349 6.12822 44.7873 5.81763 44.7873H0.65799Z" fill="#46C7C6"/>
<path fill-rule="evenodd" clip-rule="evenodd" d="M28.7453 47.9994H27.6204V43.2399C27.6204 42.9294 27.8727 42.6774 28.1828 42.6774C28.4931 42.6774 28.7453 42.9297 28.7453 43.2399V47.9994Z" fill="#46C7C6"/>
<path fill-rule="evenodd" clip-rule="evenodd" d="M33.3418 43.6623V44.7873H28.1825C27.8721 44.7873 27.6201 44.5349 27.6201 44.2248C27.6201 43.9146 27.8724 43.6623 28.1825 43.6623H33.3418Z" fill="#46C7C6"/>
<path fill-rule="evenodd" clip-rule="evenodd" d="M13.3791 47.9994H12.2545V40.818C12.2545 40.6156 12.3628 40.4292 12.5387 40.3292L27.6139 31.768L28.9707 32.291L13.3791 41.145L13.3791 47.9994Z" fill="#46C7C6"/>
<path fill-rule="evenodd" clip-rule="evenodd" d="M6.77709 31.625L7.95757 31.1702L16.0323 38.3591C16.2652 38.5646 16.2866 38.9203 16.0812 39.1528C15.97 39.2781 15.8153 39.3426 15.6599 39.3426C15.5274 39.3426 15.3942 39.2961 15.2872 39.2012L6.77709 31.625Z" fill="#46C7C6"/>
<path fill-rule="evenodd" clip-rule="evenodd" d="M16.0385 43.4086H15.1598C14.8493 43.4086 14.5973 43.1563 14.5973 42.8461C14.5973 42.5359 14.8493 42.2837 15.1598 42.2837H16.0385C16.3489 42.2837 16.6008 42.5359 16.6008 42.8461C16.6008 43.1563 16.3489 43.4086 16.0385 43.4086Z" fill="#46C7C6"/>
<path fill-rule="evenodd" clip-rule="evenodd" d="M16.0385 45.9716H15.1598C14.8493 45.9716 14.5973 45.7194 14.5973 45.4092C14.5973 45.0989 14.8493 44.8467 15.1598 44.8467H16.0385C16.3489 44.8467 16.6008 45.0989 16.6008 45.4092C16.6008 45.7194 16.3489 45.9716 16.0385 45.9716Z" fill="#46C7C6"/>
<path fill-rule="evenodd" clip-rule="evenodd" d="M9.70066 39.1262H5.59926C5.28878 39.1262 5.03676 38.874 5.03676 38.5638C5.03676 38.2536 5.28878 38.0013 5.59926 38.0013H9.70066C10.0111 38.0013 10.2632 38.2536 10.2632 38.5638C10.2632 38.874 10.0113 39.1262 9.70066 39.1262Z" fill="#46C7C6"/>
<path fill-rule="evenodd" clip-rule="evenodd" d="M28.4008 39.1262H24.2994C23.9889 39.1262 23.737 38.874 23.737 38.5638C23.737 38.2536 23.9892 38.0013 24.2994 38.0013H28.4008C28.7113 38.0013 28.9633 38.2536 28.9633 38.5638C28.9633 38.874 28.7111 39.1262 28.4008 39.1262Z" fill="#46C7C6"/>
<path fill-rule="evenodd" clip-rule="evenodd" d="M5.25512 44.7872H0.65799V47.4368C0.65799 47.747 0.910008 47.9993 1.22049 47.9993H5.25512V44.7872Z" fill="#FFCFBF"/>
<path fill-rule="evenodd" clip-rule="evenodd" d="M28.7453 44.7873V47.9993H32.7796C33.0901 47.9993 33.3423 47.7473 33.3417 47.4368V44.7873L28.7453 44.7873Z" fill="#FFCFBF"/>
<path fill-rule="evenodd" clip-rule="evenodd" d="M21.673 29.4872L20.7841 26.1713C19.578 27.2613 18.166 27.262 16.6172 27.262C15.3166 27.262 14.1527 27.479 13.0797 26.6771L12.3269 29.4889C12.4878 31.9299 14.5182 33.8598 16.9999 33.8598C19.4814 33.8598 21.5116 31.9281 21.673 29.4872C21.6729 29.4877 21.6724 29.4865 21.673 29.4872Z" fill="#FFBAAC"/>
<path fill-rule="evenodd" clip-rule="evenodd" d="M16.6356 28.1225C12.3612 28.1225 8.91938 22.8516 8.91938 18.4877C8.91938 18.2846 8.92724 18.0838 8.94285 17.8849C8.95149 17.7732 8.99324 17.6666 9.06322 17.5787C11.3432 14.7065 13.3748 14.0171 15.1665 13.4092C16.4384 12.9776 17.6395 12.5702 18.8739 11.418C19.0325 11.27 19.2626 11.2262 19.4636 11.3059C19.5304 11.3321 19.5968 11.3599 19.6628 11.388C19.8777 11.4787 20.0141 11.6923 20.0062 11.9256C19.9597 13.2751 22.4218 15.5446 23.9846 16.6578C24.1022 16.7414 24.183 16.8672 24.2108 17.009C24.305 17.4949 24.353 17.9925 24.353 18.4879C24.3522 22.8517 20.9102 28.1225 16.6356 28.1225Z" fill="#FFCFBF"/>
</svg>
