<svg width="65" height="65" viewBox="0 0 65 65" fill="none" xmlns="http://www.w3.org/2000/svg">
<g clip-path="url(#clip0_7_1726)">
<path d="M53.1237 30.1715C53.1237 30.1715 51.9262 30.4376 49.7973 30.8367C47.6683 31.369 44.6081 32.0343 41.0156 33.0987C39.1528 33.6309 37.157 34.2962 35.1612 35.0945C33.1653 35.8928 30.9034 36.9572 28.7745 38.5539C28.2422 38.9531 27.7101 39.4853 27.1778 40.0175L26.7786 40.5498L26.6455 40.816L26.3795 41.2151C26.2464 41.4812 26.1134 41.6143 25.9803 41.8804L25.8472 42.2795V42.4126C25.8472 42.4126 25.7141 42.8118 25.7141 42.6787V42.8118V43.0779C25.7141 43.3439 25.581 43.7431 25.7141 44.0093C25.7141 44.2754 25.7141 44.6745 25.8472 44.9407C25.8472 45.2068 25.9803 45.473 26.1133 45.7391C26.5124 46.6705 27.0447 47.3357 27.4439 48.001C29.4397 50.2629 31.4355 51.7266 33.4314 53.3233C34.3628 54.1216 35.2941 54.7868 36.0925 55.5852C36.4916 55.8512 36.7577 56.2504 36.8908 56.5166C36.4916 56.7827 35.8264 56.9158 35.161 57.1818C33.4313 57.7141 31.3024 57.8471 29.4396 57.9802C27.4437 58.1133 25.581 58.1133 23.7181 57.9802C20.1256 57.8471 17.1983 57.581 15.0695 57.4479C14.0051 57.3148 13.2068 57.1818 12.6745 57.1818C12.1422 57.0487 11.8762 57.0487 11.8762 57.0487L11.2109 64.1007C11.2109 64.1007 12.5415 64.2338 14.6704 64.3667C16.9323 64.4998 19.9926 64.4998 23.8512 64.4998C25.714 64.4998 27.8429 64.3667 29.9718 64.1007C32.2338 63.8346 34.4958 63.4354 37.0238 62.6371C38.2213 62.2379 39.5519 61.7057 40.7494 60.6413C41.0154 60.3752 41.4146 60.109 41.6808 59.7098C41.8139 59.5767 41.9469 59.3107 42.08 59.1776L42.2131 58.9115L42.3462 58.7784L42.4793 58.5123L42.6124 58.2463V58.1132V57.8471C42.7455 57.4479 42.7455 57.0487 42.6124 56.7827C42.6124 56.1174 42.3463 55.7183 42.2132 55.186C41.2818 53.4562 40.2174 52.6579 39.2859 51.7266C38.2215 50.9282 37.157 50.1299 36.2257 49.4647C34.2298 48.0011 32.1009 46.6705 30.7704 45.2069C30.3713 44.8078 30.2382 44.5417 30.1052 44.2755C29.9722 44.0093 29.9721 44.0094 30.1052 44.0094L30.2383 43.6103L30.3714 43.4772C30.3714 43.4772 30.6375 43.2111 30.6375 43.078C30.9035 42.8119 31.3027 42.4127 31.5689 42.1466C33.0325 40.816 35.0283 39.8846 36.8912 38.9532C38.7539 38.0218 40.6168 37.3565 42.2135 36.6913C45.6729 35.4938 48.6001 34.5624 50.596 34.0302C51.6604 33.7641 52.4587 33.4979 52.991 33.365C53.5233 33.2319 53.7893 33.0989 53.7893 33.0989L53.1237 30.1715ZM37.4231 57.0487C37.4231 57.0487 37.4231 56.9156 37.4231 56.7827C37.4231 57.0487 37.4231 57.1818 37.4231 57.0487C37.4231 57.1818 37.4231 57.1818 37.4231 57.0487Z" fill="#435B6C"/>
<path d="M11.4771 31.7682C5.48958 31.7682 0.566467 36.5582 0.566467 42.5457C0.566467 48.5332 11.4771 64.1008 11.4771 64.1008C11.4771 64.1008 22.3877 48.5332 22.3877 42.5457C22.3877 36.5582 17.4646 31.7682 11.4771 31.7682Z" fill="#67C6B9"/>
<path d="M11.4771 49.0654C15.0044 49.0654 17.8638 46.206 17.8638 42.6787C17.8638 39.1515 15.0044 36.2921 11.4771 36.2921C7.94987 36.2921 5.09045 39.1515 5.09045 42.6787C5.09045 46.206 7.94987 49.0654 11.4771 49.0654Z" fill="white"/>
<path d="M13.3399 45.872L12.8076 44.5414H10.1465L9.61425 45.872H8.01758L10.8118 39.4854H12.1424L14.9365 45.872H13.3399ZM11.4771 41.3482L10.6788 43.211H12.2755L11.4771 41.3482Z" fill="#F3705B"/>
<path d="M53.5229 0.5C47.5354 0.5 42.6122 5.29002 42.6122 11.2775C42.6122 17.2651 53.5229 32.8326 53.5229 32.8326C53.5229 32.8326 64.4335 17.2651 64.4335 11.2775C64.4335 5.29002 59.5104 0.5 53.5229 0.5Z" fill="#FFD15D"/>
<path d="M53.5229 17.6643C57.0501 17.6643 59.9095 14.8048 59.9095 11.2776C59.9095 7.75029 57.0501 4.89087 53.5229 4.89087C49.9956 4.89087 47.1362 7.75029 47.1362 11.2776C47.1362 14.8048 49.9956 17.6643 53.5229 17.6643Z" fill="white"/>
<path d="M56.317 11.8098C56.051 11.5438 55.7848 11.4107 55.3856 11.2776C55.5187 11.1445 55.6517 11.1445 55.6517 11.1445C55.6517 11.1445 55.7848 11.0114 55.9177 11.0114C56.1838 10.7453 56.45 10.3461 56.45 9.94695C56.45 9.54779 56.3169 9.14862 56.0508 8.88255C55.9177 8.74945 55.6517 8.61648 55.3856 8.48338C55.1195 8.35028 54.7204 8.35028 54.3212 8.35028H51.7931V14.737H54.5873C55.5187 14.737 56.0508 14.6039 56.45 14.2047C56.7161 13.8055 56.8492 13.4064 56.8492 13.0072C56.7162 12.342 56.5831 12.0759 56.317 11.8098ZM52.9906 9.41481H53.7889C54.1881 9.41481 54.4542 9.41481 54.7204 9.54791C54.8535 9.68101 54.9864 9.81398 54.9864 10.0802C54.9864 10.3462 54.8533 10.6124 54.7204 10.6124C54.5873 10.7455 54.1881 10.7455 53.7889 10.7455H53.1237V9.41481H52.9906ZM54.9864 13.1403C54.7204 13.2734 54.4542 13.2734 54.055 13.2734H53.1236V11.8098H53.9219C54.4542 11.8098 54.7202 11.8098 54.9863 11.9429C55.2524 12.076 55.2524 12.209 55.2524 12.4752C55.2525 12.8742 55.1195 13.1403 54.9864 13.1403Z" fill="#F3705B"/>
</g>
<defs>
<clipPath id="clip0_7_1726">
<rect width="64" height="64" fill="white" transform="translate(0.5 0.5)"/>
</clipPath>
</defs>
</svg>
