<svg width="32" height="32" viewBox="0 0 32 32" fill="none" xmlns="http://www.w3.org/2000/svg">
<g clip-path="url(#clip0_31_3439)">
<path d="M0.7555 11.1305C0.265375 12.666 -6.2489e-05 14.3018 1.10347e-08 15.9999C-6.2489e-05 17.698 0.265437 19.3339 0.755562 20.8694L16 21.5652L31.2444 20.8696C31.7345 19.334 32.0001 17.698 32.0001 16C32 14.3019 31.7346 12.666 31.2444 11.1304L16 10.4348L0.7555 11.1305Z" fill="#F0F0F0"/>
<path d="M31.2439 11.1305L15.9995 10.4349L0.755008 11.1305C0.609758 11.5858 0.484695 12.0499 0.379883 12.5218H31.6189C31.5142 12.0499 31.3892 11.5856 31.2439 11.1305Z" fill="#D80027"/>
<path d="M0.379883 19.4782C0.48457 19.9501 0.609633 20.4142 0.754883 20.8695L0.756383 20.8695L15.9993 21.5651L31.2437 20.8695C31.3889 20.4143 31.514 19.9501 31.6188 19.4782H0.379883Z" fill="#D80027"/>
<path d="M16.0002 31.9999C23.1387 31.9999 29.1844 27.3248 31.2447 20.8695H0.755859C2.81617 27.3247 8.86192 31.9999 16.0002 31.9999Z" fill="#6DA544"/>
<path d="M16.0003 6.10358e-05C8.86192 0.000123536 2.8163 4.67531 0.755859 11.1305L31.2447 11.1306C29.1845 4.67525 23.1388 -1.46422e-06 16.0003 6.10358e-05Z" fill="#338AF3"/>
<path d="M7.31135 6.60877C7.31135 5.11021 8.36454 3.85833 9.77098 3.55121C9.55485 3.50396 9.33054 3.47839 9.10016 3.47839C7.37129 3.47839 5.96973 4.87989 5.96973 6.60883C5.96973 8.33777 7.37116 9.73927 9.10016 9.73927C9.33054 9.73927 9.55479 9.71364 9.77098 9.66646C8.3646 9.35921 7.31135 8.10733 7.31135 6.60877Z" fill="#F0F0F0"/>
<path d="M11.6214 8.03174L11.8333 8.68393H12.519L11.9643 9.08705L12.1761 9.73924L11.6214 9.33618L11.0665 9.73924L11.2784 9.08705L10.7236 8.68393H11.4094L11.6214 8.03174Z" fill="#F0F0F0"/>
<path d="M13.8097 8.03174L14.0217 8.68393H14.7074L14.1526 9.08705L14.3645 9.73924L13.8097 9.33618L13.2549 9.73924L13.4669 9.08705L12.9121 8.68393H13.5978L13.8097 8.03174Z" fill="#F0F0F0"/>
<path d="M15.9983 8.03174L16.2102 8.68393H16.896L16.3412 9.08705L16.5531 9.73924L15.9983 9.33618L15.4435 9.73924L15.6555 9.08705L15.1006 8.68393H15.7864L15.9983 8.03174Z" fill="#F0F0F0"/>
<path d="M18.1878 8.03174L18.3997 8.68393H19.0854L18.5307 9.08705L18.7426 9.73924L18.1878 9.33618L17.6329 9.73924L17.8449 9.08705L17.29 8.68393H17.9758L18.1878 8.03174Z" fill="#F0F0F0"/>
<path d="M20.3761 8.03174L20.5881 8.68393H21.2738L20.7191 9.08705L20.931 9.73924L20.3761 9.33618L19.8213 9.73924L20.0333 9.08705L19.4785 8.68393H20.1642L20.3761 8.03174Z" fill="#F0F0F0"/>
<path d="M13.8097 5.755L14.0217 6.40713H14.7074L14.1526 6.81032L14.3645 7.46244L13.8097 7.05938L13.2549 7.46244L13.4669 6.81032L12.9121 6.40713H13.5978L13.8097 5.755Z" fill="#F0F0F0"/>
<path d="M15.9983 5.755L16.2102 6.40713H16.896L16.3412 6.81032L16.5531 7.46244L15.9983 7.05938L15.4435 7.46244L15.6555 6.81032L15.1006 6.40713H15.7864L15.9983 5.755Z" fill="#F0F0F0"/>
<path d="M18.1878 5.755L18.3997 6.40713H19.0854L18.5307 6.81032L18.7426 7.46244L18.1878 7.05938L17.6329 7.46244L17.8449 6.81032L17.29 6.40713H17.9758L18.1878 5.755Z" fill="#F0F0F0"/>
<path d="M20.3761 5.755L20.5881 6.40713H21.2738L20.7191 6.81032L20.931 7.46244L20.3761 7.05938L19.8213 7.46244L20.0333 6.81032L19.4785 6.40713H20.1642L20.3761 5.755Z" fill="#F0F0F0"/>
<path d="M15.9983 3.47827L16.2102 4.13052H16.896L16.3412 4.53358L16.5531 5.18583L15.9983 4.78277L15.4435 5.18583L15.6555 4.53358L15.1006 4.13052H15.7864L15.9983 3.47827Z" fill="#F0F0F0"/>
<path d="M18.1878 3.47827L18.3997 4.13052H19.0854L18.5307 4.53358L18.7426 5.18583L18.1878 4.78277L17.6329 5.18583L17.8449 4.53358L17.29 4.13052H17.9758L18.1878 3.47827Z" fill="#F0F0F0"/>
<path d="M20.3761 3.47827L20.5881 4.13052H21.2738L20.7191 4.53358L20.931 5.18583L20.3761 4.78277L19.8213 5.18583L20.0333 4.53358L19.4785 4.13052H20.1642L20.3761 3.47827Z" fill="#F0F0F0"/>
</g>
<defs>
<clipPath id="clip0_31_3439">
<rect width="32" height="32" fill="white"/>
</clipPath>
</defs>
</svg>
